<svg id="Camada_1" data-name="Camada 1" xmlns="http://www.w3.org/2000/svg" viewBox="0 0 24 24"><defs><style>.cls-1{fill:#c9c9c9}</style></defs><path class="cls-1" d="M20 0H4a4 4 0 0 0-4 4v16a4 4 0 0 0 4 4h16a4 4 0 0 0 4-4V4a4 4 0 0 0-4-4zm0 17a1 1 0 0 1-1 1H5a1 1 0 0 1-1-1v-6a1 1 0 0 1 1-1h14a1 1 0 0 1 1 1zm.71-10.29l.58.58c.39.39.26.71-.29.71H3c-.55 0-.68-.32-.29-.71l.58-.58a1 1 0 0 0 0-1.42l-.58-.58C2.32 4.32 2.45 4 3 4h18c.55 0 .68.32.29.71l-.58.58a1 1 0 0 0 0 1.42z"/><rect class="cls-1" x="6" y="12" width="12" height="4" rx="1"/></svg>