<svg id="Camada_1" xmlns="http://www.w3.org/2000/svg" viewBox="0 0 24 24"><style>.st0{fill:#cac9c9}</style><path class="st0" d="M22 0h-7.01C13.9 0 13 .9 13 2v2c0 .28-.23.5-.5.5h-.28c-.27 0-.65-.17-.83-.38 0 0-.34-.39-.83-.53-.02-.01-.04-.01-.07-.02-.54-.14-1.14-.14-1.93.66-.3.3-.53.7-.56 1.12-.08 1.17.85 2.15 2 2.15.17 0 .34-.03.5-.07.02-.01.04-.01.07-.02.49-.15.83-.53.83-.53.18-.21.55-.38.83-.38h.28A.5.5 0 0 1 13 7v2.01c0 1.1.9 1.99 1.99 1.99.09 0 .13-.22.09-.49 0 0-.24-1.52 1.01-2.86.61-.65 1.43-1.13 2.32-1.15a3.505 3.505 0 0 1 3.55 4.02c-.07.26-.05.48.04.48 1.1 0 2-.9 2-1.99V2c0-1.1-.9-2-2-2z"/><path class="st0" d="M2 11h2c.28 0 .5.23.5.5v.28c0 .27-.17.65-.38.83 0 0-.39.34-.53.83-.01.02-.01.04-.02.07-.14.55-.14 1.15.66 1.94.3.3.7.53 1.12.56 1.17.07 2.15-.86 2.15-2.01 0-.17-.03-.34-.07-.5-.01-.02-.01-.04-.02-.07-.15-.49-.53-.83-.53-.83-.21-.18-.38-.55-.38-.83v-.27c0-.27.22-.5.5-.5h2.01C10.1 11 11 10.1 11 9.01c0-.09-.22-.13-.49-.09 0 0-1.52.24-2.86-1.01C7 7.3 6.52 6.48 6.5 5.59a3.505 3.505 0 0 1 4.02-3.55c.26.07.48.05.48-.04 0-1.1-.9-2-1.99-2H2C.9 0 0 .9 0 2v7.01C0 10.1.9 11 2 11z"/><path class="st0" d="M13.43 20.41c.02.01.04.01.07.02.55.14 1.15.14 1.94-.66.3-.3.53-.7.56-1.12.08-1.17-.84-2.15-1.99-2.15-.17 0-.34.03-.5.07-.02.01-.04.01-.07.02-.49.15-.83.53-.83.53-.18.21-.55.38-.83.38h-.28c-.27 0-.5-.23-.5-.5v-2.01C11 13.9 10.1 13 9.01 13c-.09 0-.13.22-.09.49 0 0 .24 1.52-1.01 2.86-.61.65-1.43 1.13-2.32 1.15a3.505 3.505 0 0 1-3.55-4.02c.07-.26.05-.48-.04-.48-1.1 0-2 .9-2 1.99V22c0 1.1.9 2 2 2h7.01c1.1 0 1.99-.9 1.99-2v-2c0-.27.23-.5.5-.5h.28c.27 0 .65.17.83.38 0 0 .33.38.82.53z"/><path class="st0" d="M22 13h-2c-.27 0-.5-.23-.5-.5v-.28c0-.27.17-.65.38-.83 0 0 .39-.34.53-.83.01-.02.01-.04.02-.07.14-.55.14-1.15-.66-1.94-.3-.3-.7-.53-1.12-.56-1.17-.07-2.15.86-2.15 2.01 0 .17.03.34.07.5.01.02.01.04.02.07.15.49.53.83.53.83.21.18.38.55.38.83v.28c0 .27-.23.5-.5.5h-2.01C13.9 13 13 13.9 13 14.99c0 .09.22.13.49.09 0 0 1.52-.24 2.86 1.01.65.61 1.12 1.42 1.14 2.31a3.493 3.493 0 0 1-4.01 3.56c-.26-.07-.48-.05-.48.04 0 1.1.9 2 1.99 2H22c1.1 0 2-.9 2-2v-7.01c0-1.09-.9-1.99-2-1.99z"/></svg>