<svg id="Camada_1" data-name="Camada 1" xmlns="http://www.w3.org/2000/svg" viewBox="0 0 24 24"><defs><style>.cls-1{fill:#c9c9c9}</style></defs><path class="cls-1" d="M20 0H4a4 4 0 0 0-4 4v16a4 4 0 0 0 4 4h16a4 4 0 0 0 4-4V4a4 4 0 0 0-4-4zM8 19.3a.71.71 0 0 1-.7.7H2.7a.7.7 0 0 1-.7-.7v-.5a2.81 2.81 0 0 1 1.7-2.57 1.91 1.91 0 0 1-.58-1.35 1.88 1.88 0 1 1 3.17 1.35A2.8 2.8 0 0 1 8 18.8zm0-10a.71.71 0 0 1-.7.7H2.7a.7.7 0 0 1-.7-.7v-.5a2.81 2.81 0 0 1 1.7-2.57 1.91 1.91 0 0 1-.58-1.36 1.88 1.88 0 0 1 3.75 0 1.83 1.83 0 0 1-.58 1.35A2.82 2.82 0 0 1 8 8.8zM21 20H11a1 1 0 0 1 0-2h10a1 1 0 0 1 0 2zm0-4H11a1 1 0 0 1 0-2h10a1 1 0 0 1 0 2zm0-6H11a1 1 0 0 1 0-2h10a1 1 0 0 1 0 2zm0-4H11a1 1 0 0 1 0-2h10a1 1 0 0 1 0 2z"/></svg>