<svg id="Camada_1" data-name="Camada 1" xmlns="http://www.w3.org/2000/svg" viewBox="0 0 24 24"><defs><style>.cls-1{fill:#c9c9c9}</style></defs><path class="cls-1" d="M20 4H4a4 4 0 0 0-4 4v8a4 4 0 0 0 4 4h16a4 4 0 0 0 4-4V8a4 4 0 0 0-4-4zm-8.36 8.49l-.59.33a1.35 1.35 0 0 0-.6 1.46l.18.65c.14.53-.17.84-.7.7l-.65-.18a1.35 1.35 0 0 0-1.46.6l-.33.59c-.27.48-.71.48-1 0l-.33-.59a1.35 1.35 0 0 0-1.46-.6l-.65.18c-.53.14-.84-.17-.7-.7l.18-.65A1.35 1.35 0 0 0 3 12.82l-.59-.33c-.48-.27-.48-.71 0-1l.59-.31a1.35 1.35 0 0 0 .6-1.46l-.18-.65c-.14-.53.17-.84.7-.7l.65.18A1.35 1.35 0 0 0 6.18 8l.33-.59c.27-.48.71-.48 1 0l.31.59a1.35 1.35 0 0 0 1.46.6l.65-.18c.53-.14.84.17.7.7l-.18.65a1.35 1.35 0 0 0 .6 1.46l.59.33c.48.22.48.66 0 .93zM21 15h-6a1 1 0 0 1 0-2h6a1 1 0 0 1 0 2zm0-4h-6a1 1 0 0 1 0-2h6a1 1 0 0 1 0 2z"/></svg>