<svg xmlns="http://www.w3.org/2000/svg" viewBox="0 0 24 24"><style>.st0{fill:#c9c9c9}</style><path class="st0" d="M20 0H4C1.8 0 0 1.8 0 4v16c0 2.2 1.8 4 4 4h16c2.2 0 4-1.8 4-4V4c0-2.2-1.8-4-4-4zM9.71 20.29c.39.39.39 1.03 0 1.42-.39.39-1.03.39-1.42 0L7 20.42l-1.29 1.29c-.39.39-1.03.39-1.42 0-.39-.39-.39-1.03 0-1.42L5.58 19l-1.29-1.29c-.39-.39-.39-1.03 0-1.42.39-.39 1.03-.39 1.42 0L7 17.58l1.29-1.29c.39-.39 1.03-.39 1.42 0 .39.39.39 1.03 0 1.42L8.42 19l1.29 1.29zm10-2.58l-3.96 3.98-.01.01a.996.996 0 0 1-1.41 0c-.02-.02-.03-.05-.05-.08l-1.98-1.96a.984.984 0 0 1 0-1.4c.39-.38 1.02-.38 1.41 0l1.33 1.31 3.27-3.29a.996.996 0 0 1 1.41 0c.38.4.38 1.04-.01 1.43zM20 13c0 .55-.45 1-1 1H5c-.55 0-1-.45-1-1v-2c0-.55.45-1 1-1h14c.55 0 1 .45 1 1v2zm0-6c0 .55-.45 1-1 1H5c-.55 0-1-.45-1-1V5c0-.55.45-1 1-1h14c.55 0 1 .45 1 1v2z" id="Camada_2"/></svg>