<svg xmlns="http://www.w3.org/2000/svg" viewBox="0 0 24 24"><style>.st0{fill:#c9c9c9}</style><g id="Camada_2"><path class="st0" d="M23.33 10.43C20.72 11.38 16.63 12 12 12S3.28 11.38.67 10.43a.5.5 0 0 0-.67.47v2.93c0 .21.12.39.31.47C2.9 15.33 7.17 16 12 16c4.83 0 9.1-.67 11.69-1.69.19-.08.31-.26.31-.47V10.9a.5.5 0 0 0-.67-.47zM23.33 16.43C20.72 17.38 16.63 18 12 18S3.28 17.38.67 16.43a.5.5 0 0 0-.67.47v2.93c0 .21.12.39.31.47C2.9 21.33 7.17 22 12 22c4.83 0 9.1-.67 11.69-1.69.19-.08.31-.26.31-.47V16.9a.5.5 0 0 0-.67-.47zM23.69 3.69C21.1 2.67 16.83 2 12 2S2.9 2.67.31 3.69c-.19.08-.31.27-.31.47v3.68c0 .2.12.39.31.47C2.9 9.33 7.17 10 12 10s9.1-.67 11.69-1.69c.19-.08.31-.27.31-.47V4.16c0-.2-.12-.39-.31-.47z"/></g></svg>