<svg xmlns="http://www.w3.org/2000/svg" viewBox="0 0 24 24"><style>.st0{fill:#c9c9c9}</style><g id="Camada_2"><path class="st0" d="M16 6H8c-.55 0-1 .45-1 1v2c0 .55.45 1 1 1h8c.55 0 1-.45 1-1V7c0-.55-.45-1-1-1z"/><path class="st0" d="M20 0H4C1.8 0 0 1.8 0 4v16c0 2.2 1.8 4 4 4h16c2.2 0 4-1.8 4-4V4c0-2.2-1.8-4-4-4zm.45 8.89l1.11 2.21c.24.5-.01.9-.56.9H3c-.55 0-.8-.4-.55-.89L3.56 8.9c.25-.49.25-1.3 0-1.79L2.45 4.89C2.2 4.4 2.45 4 3 4h18c.55 0 .8.4.55.89L20.44 7.1c-.24.5-.24 1.3.01 1.79z"/></g></svg>