<svg xmlns="http://www.w3.org/2000/svg" viewBox="0 0 24 24"><style>.st0{fill:#c9c9c9}</style><path class="st0" d="M20.04 0H3.96c-2.2 0-4 1.8-4 4v16c0 2.2 1.8 4 4 4h16.09c2.2 0 4-1.8 4-4V4c-.01-2.2-1.81-4-4.01-4zm-15 19c-.55 0-1-.45-1-1s.45-1 1-1 1 .45 1 1-.44 1-1 1zm0-6c-.55 0-1-.45-1-1s.45-1 1-1 1 .45 1 1-.44 1-1 1zm0-6c-.55 0-1-.45-1-1s.45-1 1-1 1 .45 1 1-.44 1-1 1zm15 11.01c0 .55-.45.99-.99.99H9.04c-.55 0-.99-.45-.99-.99V18c0-.55.45-.99.99-.99h10.01c.55 0 .99.45.99.99v.01zm0-6c0 .55-.45.99-.99.99H9.04c-.55 0-.99-.45-.99-.99V12c0-.55.45-.99.99-.99h10.01c.55 0 .99.45.99.99v.01zm0-6c0 .54-.44.99-.99.99H9.04a1 1 0 0 1-1-.99v-.02a1 1 0 0 1 1-.99h10.01c.55 0 .99.45.99.99v.02z" id="Camada_2"/></svg>