<svg xmlns="http://www.w3.org/2000/svg" viewBox="0 0 24 24"><style>.st0{fill:#c9c9c9}</style><path class="st0" d="M11.37.32c.35-.43.91-.43 1.26 0l1.63 2.02c.34.42 1.06.66 1.59.51l2.5-.67c.53-.14.99.19 1.02.74l.13 2.59c.03.55.47 1.16.99 1.36l2.42.93c.51.2.69.73.39 1.2l-1.41 2.17c-.3.46-.3 1.22 0 1.68l1.41 2.17c.3.46.13 1-.39 1.2l-2.42.93c-.51.2-.96.81-.99 1.36l-.13 2.59c-.03.55-.49.88-1.02.74l-2.5-.67c-.53-.14-1.25.09-1.59.52l-1.63 2.02c-.35.43-.91.43-1.26 0l-1.63-2.02c-.34-.45-1.06-.69-1.59-.54l-2.5.67c-.53.14-.99-.19-1.02-.74l-.13-2.59c-.03-.55-.47-1.16-.99-1.36l-2.42-.93C.58 16 .4 15.47.7 15l1.41-2.17c.3-.46.3-1.22 0-1.68L.7 8.99c-.3-.46-.13-1 .39-1.2l2.42-.93c.51-.2.96-.81.99-1.36l.13-2.59c.03-.55.49-.88 1.02-.74l2.5.67c.53.16 1.25-.08 1.59-.5L11.37.32z" id="Camada_2"/></svg>