<svg xmlns="http://www.w3.org/2000/svg" viewBox="0 0 24 24"><style>.st0{fill:#c9c9c9}</style><g id="Camada_2"><circle class="st0" cx="8" cy="21" r="1"/><circle class="st0" cx="12" cy="21" r="1"/><circle class="st0" cx="16" cy="21" r="1"/><path class="st0" d="M20 2H4C1.79 2 0 3.79 0 6v8c0 2.21 1.79 4 4 4h16c2.21 0 4-1.79 4-4V6c0-2.21-1.79-4-4-4zM6 11.83h-.03c-.04.24-.13.47-.31.66-.46.46-1.2.46-1.66 0l-1.66-1.66a1.17 1.17 0 0 1 0-1.66L4 7.51a1.17 1.17 0 0 1 2 .83v3.49zm15.66-1L20 12.49c-.46.46-1.2.46-1.66 0-.18-.18-.27-.42-.31-.66H18V8.34a1.17 1.17 0 0 1 2-.83l1.66 1.66c.45.46.45 1.2 0 1.66z"/></g></svg>