<svg id="Camada_1" data-name="Camada 1" xmlns="http://www.w3.org/2000/svg" viewBox="0 0 24 24"><defs><style>.cls-1{fill:#c9c9c9}</style></defs><path class="cls-1" d="M21 18h-1.5a.5.5 0 0 1-.5-.5v-11a.5.5 0 0 1 .5-.5H21a1 1 0 0 0 0-2h-6a1 1 0 0 0 0 2h1.5a.5.5 0 0 1 .5.5v11a.5.5 0 0 1-.5.5H15a1 1 0 0 0 0 2h6a1 1 0 0 0 0-2z"/><path class="cls-1" d="M15 8H2a2 2 0 0 0-2 2v4a2 2 0 0 0 2 2h13zm-3 5a1 1 0 0 1-1 1H3a1 1 0 0 1-1-1v-2a1 1 0 0 1 1-1h8a1 1 0 0 1 1 1zM22 8h-1v8h1a2 2 0 0 0 2-2v-4a2 2 0 0 0-2-2z"/></svg>