<svg xmlns="http://www.w3.org/2000/svg" viewBox="0 0 24 24"><style>.st0{fill:#c9c9c9}</style><g id="Camada_1"><path class="st0" d="M22 3H2C.9 3 0 3.9 0 5v4c0 1.1.9 2 2 2h20c1.1 0 2-.9 2-2V5c0-1.1-.9-2-2-2zM12 7.04c0 .53-.43.96-.96.96H4.96A.96.96 0 0 1 4 7.04v-.08c0-.53.43-.96.96-.96h6.08c.53 0 .96.43.96.96v.08zm7.79-.84l-2.6 2.6c-.23.23-.58.25-.85.09-.05-.03-.1-.05-.14-.09l-1.6-1.6a.706.706 0 0 1 0-.99c.27-.27.72-.27.99 0l1.1 1.1 2.1-2.1c.27-.27.72-.27.99 0s.29.71.01.99zM22 13H2c-1.1 0-2 .9-2 2v4c0 1.1.9 2 2 2h20c1.1 0 2-.9 2-2v-4c0-1.1-.9-2-2-2zm-10 4.04c0 .53-.43.96-.96.96H4.96a.96.96 0 0 1-.96-.96v-.08c0-.53.43-.96.96-.96h6.08c.53 0 .96.43.96.96v.08z"/></g></svg>