<svg xmlns="http://www.w3.org/2000/svg" viewBox="0 0 24 24"><style>.st0{fill:#c9c9c9}</style><g id="Camada_2"><path class="st0" d="M10.26 12.1l-1.49 1.49-2.48 2.48a.996.996 0 0 0 0 1.41l.22.22c.39.39 1.03.39 1.41 0l9.76-9.76a.996.996 0 0 0 0-1.41l-.22-.22a.996.996 0 0 0-1.41 0l-2.46 2.46-1.49 1.49-1.84 1.84z"/><path class="st0" d="M10.52 16.52c-.09.5-.32.98-.7 1.36l-3.37 3.37c-.48.48-1.12.75-1.8.75-.68 0-1.32-.26-1.8-.74l-.11-.11c-.99-.99-.99-2.61 0-3.6l3.37-3.37c.37-.37.84-.61 1.36-.7l1.81-1.81c-.45-.14-.9-.23-1.37-.23-1.17 0-2.33.44-3.21 1.33l-3.37 3.37a4.557 4.557 0 0 0 0 6.43l.11.11c.88.88 2.04 1.32 3.21 1.32s2.33-.44 3.21-1.33l3.37-3.37c1.24-1.24 1.59-3.02 1.1-4.58l-1.81 1.8zM22.67 1.43l-.11-.11A4.517 4.517 0 0 0 19.35 0c-1.17 0-2.33.44-3.21 1.33L12.76 4.7c-1.24 1.24-1.59 3.02-1.1 4.58l1.81-1.81c.09-.5.32-.98.7-1.36l3.37-3.37A2.61 2.61 0 0 1 19.35 2c.68 0 1.32.26 1.8.74l.11.11c.99.99.99 2.61 0 3.6l-3.37 3.37c-.37.37-.84.61-1.36.7l-1.81 1.81c.45.14.9.23 1.37.23 1.17 0 2.33-.44 3.21-1.33l3.37-3.37c1.77-1.76 1.77-4.66 0-6.43z"/></g></svg>