<svg xmlns="http://www.w3.org/2000/svg" viewBox="0 0 24 24"><style>.st0{fill:#c9c9c9}</style><g id="Camada_2"><path class="st0" d="M5 20c-.55 0-1-.45-1-1s.45-1 1-1h9.35c-.01-.26 0-.52.08-.78l.35-1.22H5c-.55 0-1-.45-1-1s.45-1 1-1h10.35l.81-2.82c.13-.46.39-.86.73-1.18H4c-2.2 0-4 1.8-4 4v6c0 2.2 1.8 4 4 4h12.29c-.01-.16-.02-.31.01-.49l.41-3.26c-.38 0-.74-.09-1.07-.25H5zM4 8h16c2.2 0 4-1.8 4-4s-1.8-4-4-4H4C1.8 0 0 1.8 0 4s1.8 4 4 4zm10.69-5.66c.18-.18.42-.27.66-.31V2h3.48a1.17 1.17 0 0 1 .83 2L18 5.66c-.46.46-1.2.46-1.66 0L14.69 4a1.17 1.17 0 0 1 0-1.66z"/><path class="st0" d="M23.72 16.25h-2.43c-.27 0-.44-.22-.36-.48l1.15-4.04c.08-.26-.09-.48-.36-.48h-3c-.28 0-.56.22-.64.48l-1.73 6.04c-.08.26.09.48.36.48h1.75c.27 0 .47.22.44.5l-.63 5.01c-.03.27.07.32.24.1l5.4-7.2c.17-.23.08-.41-.19-.41z"/></g></svg>