<svg xmlns="http://www.w3.org/2000/svg" viewBox="0 0 24 24"><style>.st0{fill:#c9c9c9}</style><g id="Camada_2"><path class="st0" d="M15.01 16V8H14c-1.1 0-2 .9-2 2v4c0 1.1.9 2 2 2h1.01zM22 8h-1.01v8H22c1.1 0 2-.9 2-2v-4c0-1.1-.9-2-2-2z"/><path class="st0" d="M21 18h-1.5c-.28 0-.5-.22-.5-.5v-11c0-.28.22-.5.5-.5H21c.55 0 1-.45 1-1s-.45-1-1-1h-6c-.55 0-1 .45-1 1s.45 1 1 1h1.5c.28 0 .5.22.5.5v11c0 .28-.22.5-.5.5H15c-.55 0-1 .45-1 1s.45 1 1 1h6c.55 0 1-.45 1-1s-.45-1-1-1zM9.63 11.51l-.59-.33c-.48-.27-.75-.93-.6-1.46l.18-.65c.15-.53-.17-.84-.7-.7l-.64.18c-.53.15-1.19-.12-1.46-.6l-.33-.59c-.27-.48-.71-.48-.99 0l-.33.59c-.27.48-.92.75-1.45.6l-.65-.18c-.53-.15-.84.17-.7.7l.18.65c.15.53-.12 1.19-.6 1.46l-.59.33c-.48.27-.48.71 0 .99l.59.33c.48.27.75.93.6 1.46l-.18.65c-.15.53.17.84.7.7l.65-.18c.53-.15 1.19.12 1.46.6l.33.59c.27.48.71.48.99 0l.33-.59c.27-.48.93-.75 1.46-.6l.65.18c.53.15.84-.17.7-.7l-.18-.65c-.15-.53.12-1.19.6-1.46l.59-.33c.46-.28.46-.72-.02-.99z"/></g></svg>