<svg xmlns="http://www.w3.org/2000/svg" viewBox="0 0 24 24"><style>.st0{fill:#c9c9c9}</style><g id="Camada_2"><circle class="st0" cx="7" cy="7" r="3"/><path class="st0" d="M24.22 16.25h-2.93c-.28 0-.44-.22-.36-.48l.58-2.02.71-2.5h-4l-.14.48-.86 3.02-1 3.5h2.25c.27 0 .47.22.44.5l-.69 5.5 6-8z"/><path class="st0" d="M14.81 19.31c-.45-.6-.59-1.36-.38-2.09l1.73-6.04c.32-1.12 1.4-1.93 2.56-1.93h1.54l-.96-.96a.996.996 0 0 0-1.41 0l-7.42 7.42-3.4-3.4a.996.996 0 0 0-1.41 0L2 15.96V4c0-1.1.9-2 2-2h16c1.1 0 2 .9 2 2v5.28c.65.07 1.23.39 1.63.91.18.24.3.51.37.79V4c0-2.2-1.8-4-4-4H4C1.8 0 0 1.8 0 4v16c0 2.2 1.8 4 4 4h12.29c-.01-.16-.02-.31.01-.49l.41-3.26c-.77 0-1.46-.35-1.9-.94z"/></g></svg>