<svg xmlns="http://www.w3.org/2000/svg" viewBox="0 0 24 24"><style>.st0{fill:#c9c9c9}</style><g id="Camada_2"><path class="st0" d="M11 8h2c.55 0 1-.45 1-1s-.45-1-1-1h-1V5c0-.55-.45-1-1-1s-1 .45-1 1v2c0 .55.45 1 1 1z"/><circle class="st0" cx="1" cy="11" r="1"/><path class="st0" d="M21 20h-5v-3c0-.55-.45-1-1-1s-1 .45-1 1v5h-3c-.55 0-1 .45-1 1s.45 1 1 1h6c.55 0 1-.45 1-1s-.45-1-1-1h4c.55 0 1-.45 1-1s-.45-1-1-1z"/><circle class="st0" cx="11" cy="19" r="1"/><path class="st0" d="M23 10c-.55 0-1 .45-1 1v1h-1c-.55 0-1 .45-1 1s.45 1 1 1h1v1c0 .55.45 1 1 1s1-.45 1-1v-4c0-.55-.45-1-1-1zM10 12h1c.55 0 1-.45 1-1s-.45-1-1-1H9c-.55 0-1 .45-1 1v4c0 .55.45 1 1 1s1-.45 1-1v-3zM12 13c0 .55.45 1 1 1h4c.55 0 1-.45 1-1s-.45-1-1-1h-4c-.55 0-1 .45-1 1z"/><circle class="st0" cx="15" cy="9" r="1"/><path class="st0" d="M4 11v1H3c-.55 0-1 .45-1 1s.45 1 1 1h2c.55 0 1-.45 1-1v-2c0-.55-.45-1-1-1s-1 .45-1 1zM1 8h6c.55 0 1-.45 1-1V1c0-.55-.45-1-1-1H1C.45 0 0 .45 0 1v6c0 .55.45 1 1 1zm1-5c0-.55.45-1 1-1h2c.55 0 1 .45 1 1v2c0 .55-.45 1-1 1H3c-.55 0-1-.45-1-1V3zM23 0h-6c-.55 0-1 .45-1 1v6c0 .55.45 1 1 1h6c.55 0 1-.45 1-1V1c0-.55-.45-1-1-1zm-1 5c0 .55-.45 1-1 1h-2c-.55 0-1-.45-1-1V3c0-.55.45-1 1-1h2c.55 0 1 .45 1 1v2zM7 16H1c-.55 0-1 .45-1 1v6c0 .55.45 1 1 1h6c.55 0 1-.45 1-1v-6c0-.55-.45-1-1-1zm-1 5c0 .55-.45 1-1 1H3c-.55 0-1-.45-1-1v-2c0-.55.45-1 1-1h2c.55 0 1 .45 1 1v2z"/></g></svg>