<svg xmlns="http://www.w3.org/2000/svg" viewBox="0 0 24 24"><style>.st0{fill:#c9c9c9}</style><path class="st0" d="M4 24h16c2.2 0 4-1.8 4-4V4c0-2.2-1.8-4-4-4H4C1.8 0 0 1.8 0 4v16c0 2.2 1.8 4 4 4zm16-6c0 .55-.45 1-1 1H9.34v.67a1.338 1.338 0 0 1-2.28.94l-2.67-2.67C4.15 17.7 4 17.37 4 17s.15-.7.39-.94l2.67-2.67a1.33 1.33 0 0 1 2.27.94V15H19c.55 0 1 .45 1 1v2zM4.39 6.06l2.67-2.67a1.33 1.33 0 0 1 2.27.94V5H19c.55 0 1 .45 1 1v2c0 .55-.45 1-1 1H9.33v.67a1.33 1.33 0 0 1-2.27.94L4.39 7.94C4.15 7.7 4 7.37 4 7s.15-.7.39-.94z" id="Camada_1"/></svg>