<svg id="Camada_1" data-name="Camada 1" xmlns="http://www.w3.org/2000/svg" viewBox="0 0 24 24"><defs><style>.cls-1{fill:#c9c9c9}</style></defs><path class="cls-1" d="M20 10H4a4 4 0 0 0-4 4v6a4 4 0 0 0 4 4h16a4 4 0 0 0 4-4v-6a4 4 0 0 0-4-4zm-1 10H5a1 1 0 0 1 0-2h14a1 1 0 0 1 0 2zm0-4H5a1 1 0 0 1 0-2h14a1 1 0 0 1 0 2zM4 8h16a4 4 0 0 0 0-8H4a4 4 0 0 0 0 8zm10.69-5.66a1.16 1.16 0 0 1 .65-.34h3.49a1.16 1.16 0 0 1 .83.34 1.19 1.19 0 0 1 0 1.66L18 5.66a1.19 1.19 0 0 1-1.66 0L14.69 4a1.17 1.17 0 0 1 0-1.66z"/></svg>