<svg xmlns="http://www.w3.org/2000/svg" viewBox="0 0 24 24"><style>.st0{fill:#c9c9c9}</style><g id="Camada_2"><path class="st0" d="M3.01 16V8H2c-1.1 0-2 .9-2 2v4c0 1.1.9 2 2 2h1.01zM10 8H8.99v8H10c1.1 0 2-.9 2-2v-4c0-1.1-.9-2-2-2z"/><path class="st0" d="M9 18H7.5c-.28 0-.5-.22-.5-.5v-11c0-.28.22-.5.5-.5H9c.55 0 1-.45 1-1s-.45-1-1-1H3c-.55 0-1 .45-1 1s.45 1 1 1h1.5c.28 0 .5.22.5.5v11c0 .28-.22.5-.5.5H3c-.55 0-1 .45-1 1s.45 1 1 1h6c.55 0 1-.45 1-1s-.45-1-1-1zM21.75 15.17a.732.732 0 0 0-.53-.22c-.41 0-.75.34-.75.75v-.5c0-.21-.08-.39-.22-.53s-.32-.22-.53-.22c-.31 0-.58.19-.69.46-.04.09-.06.19-.06.29v-.5c0-.21-.08-.39-.22-.53s-.32-.22-.53-.22c-.1 0-.2.02-.29.06-.27.11-.46.38-.46.69v-3c0-.21-.08-.39-.22-.53s-.32-.22-.53-.22c-.31 0-.58.19-.69.46-.04.09-.06.19-.06.29v5.25l-.72-.72a.754.754 0 0 0-1.06 0c-.29.29-.29.77 0 1.06l1.63 1.63.53.53c.28.31.67.5 1.11.5h3c.83 0 1.5-.68 1.5-1.5V15.7c0-.17-.07-.33-.17-.45a.201.201 0 0 0-.04-.08z"/><path class="st0" d="M22 8h-6c-1.1 0-2 .9-2 2v4c0 .39.12.75.31 1.06.13-.03.27-.05.41-.05.08 0 .17.01.25.02V11.7c0-.97.79-1.75 1.75-1.75s1.75.79 1.75 1.75v1.27c.39.06.73.24.99.5a1.72 1.72 0 0 1 1.5.5 1.752 1.752 0 0 1 2.01 1.73v.04c.61-.35 1.03-.99 1.03-1.74v-4c0-1.1-.9-2-2-2z"/></g></svg>