<svg xmlns="http://www.w3.org/2000/svg" viewBox="0 0 24 24"><style>.st0{fill:#c9c9c9}</style><g id="Camada_2"><path class="st0" d="M18.5 14c-.83 0-1.5.67-1.5 1.5v-1c0-.83-.67-1.5-1.5-1.5s-1.5.68-1.5 1.5v-1c0-.83-.67-1.5-1.5-1.5s-1.5.68-1.5 1.5v-6c0-.82-.67-1.5-1.5-1.5S8 6.68 8 7.5v10.49l-1.44-1.44a1.49 1.49 0 0 0-2.12 0 1.49 1.49 0 0 0 0 2.12l3.26 3.26L8.77 23l.01-.01C9.33 23.6 10.12 24 11 24h6c1.65 0 3-1.35 3-3v-5.5c0-.82-.67-1.5-1.5-1.5z"/><path class="st0" d="M20 2H4C1.8 2 0 3.8 0 6v2c0 2.2 1.8 4 4 4h2V7.5C6 5.57 7.57 4 9.5 4S13 5.57 13 7.5v2.54c.77.11 1.46.47 1.99 1a3.464 3.464 0 0 1 2.95.96H20c2.2 0 4-1.8 4-4V6c0-2.2-1.8-4-4-4z"/></g></svg>