<svg id="Camada_1" data-name="Camada 1" xmlns="http://www.w3.org/2000/svg" viewBox="0 0 24 24"><defs><style>.cls-1{fill:#c9c9c9;}</style></defs><path class="cls-1" d="M20,0H4A4,4,0,0,0,0,4V20a4,4,0,0,0,4,4H20a4,4,0,0,0,4-4V4A4,4,0,0,0,20,0Zm0,17a1,1,0,0,1-1,1H5a1,1,0,0,1-1-1V11a1,1,0,0,1,1-1H19a1,1,0,0,1,1,1Zm.71-10.29.58.58c.39.39.26.71-.29.71H3c-.55,0-.68-.32-.29-.71l.58-.58a1,1,0,0,0,0-1.42l-.58-.58C2.32,4.32,2.45,4,3,4H21c.55,0,.68.32.29.71l-.58.58A1,1,0,0,0,20.71,6.71Z"/><rect class="cls-1" x="6" y="12" width="12" height="4" rx="1"/></svg>