<?xml version="1.0" encoding="utf-8"?>
<!-- Generator: Adobe Illustrator 25.3.1, SVG Export Plug-In . SVG Version: 6.00 Build 0)  -->
<svg version="1.1" xmlns="http://www.w3.org/2000/svg" xmlns:xlink="http://www.w3.org/1999/xlink" x="0px" y="0px"
	 viewBox="0 0 24 24" style="enable-background:new 0 0 24 24;" xml:space="preserve">
<style type="text/css">
	.st0{fill:#C9C9C9;}
</style>
<g id="Camada_1">
	<g>
		<path class="st0" d="M20,16H4c-2.2,0-4,1.8-4,4s1.8,4,4,4h16c2.2,0,4-1.8,4-4S22.2,16,20,16z M9,22H4c-1.1,0-2-0.9-2-2
			c0-1.1,0.9-2,2-2h5c1.1,0,2,0.9,2,2C11,21.1,10.1,22,9,22z M20,22h-5c-1.1,0-2-0.9-2-2c0-1.1,0.9-2,2-2h5c1.1,0,2,0.9,2,2
			C22,21.1,21.1,22,20,22z"/>
		<path class="st0" d="M20,0H4C1.8,0,0,1.8,0,4v6c0,2.2,1.8,4,4,4h16c2.2,0,4-1.8,4-4V4C24,1.8,22.2,0,20,0z"/>
	</g>
</g>
<g id="Camada_2">
</g>
</svg>
