<?xml version="1.0" encoding="utf-8"?>
<!-- Generator: Adobe Illustrator 25.3.1, SVG Export Plug-In . SVG Version: 6.00 Build 0)  -->
<svg version="1.1" xmlns="http://www.w3.org/2000/svg" xmlns:xlink="http://www.w3.org/1999/xlink" x="0px" y="0px"
	 viewBox="0 0 24 24" style="enable-background:new 0 0 24 24;" xml:space="preserve">
<style type="text/css">
	.st0{fill:#C9C9C9;}
</style>
<g id="Camada_1">
</g>
<g id="Camada_3">
</g>
<g id="Camada_4">
</g>
<g id="Camada_2">
	<path class="st0" d="M20.04,0H3.96c-2.2,0-4,1.8-4,4v16c0,2.2,1.8,4,4,4h16.09c2.2,0,4-1.8,4-4V4C24.04,1.8,22.24,0,20.04,0z
		 M5.04,19c-0.55,0-1-0.45-1-1c0-0.55,0.45-1,1-1s1,0.45,1,1C6.04,18.55,5.6,19,5.04,19z M5.04,13c-0.55,0-1-0.45-1-1
		c0-0.55,0.45-1,1-1s1,0.45,1,1C6.04,12.55,5.6,13,5.04,13z M5.04,7c-0.55,0-1-0.45-1-1c0-0.55,0.45-1,1-1s1,0.45,1,1
		C6.04,6.55,5.6,7,5.04,7z M20.04,18.01c0,0.55-0.45,0.99-0.99,0.99H9.04c-0.55,0-0.99-0.45-0.99-0.99v-0.01
		c0-0.55,0.45-0.99,0.99-0.99h10.01c0.55,0,0.99,0.45,0.99,0.99V18.01z M20.04,12.01c0,0.55-0.45,0.99-0.99,0.99H9.04
		c-0.55,0-0.99-0.45-0.99-0.99v-0.01c0-0.55,0.45-0.99,0.99-0.99h10.01c0.55,0,0.99,0.45,0.99,0.99V12.01z M20.04,6.01
		C20.04,6.55,19.6,7,19.05,7H9.04C8.49,7,8.04,6.55,8.04,6.01V5.99C8.04,5.45,8.49,5,9.04,5h10.01c0.55,0,0.99,0.45,0.99,0.99V6.01z
		"/>
</g>
</svg>
