<?xml version="1.0" encoding="utf-8"?>
<!-- Generator: Adobe Illustrator 25.3.1, SVG Export Plug-In . SVG Version: 6.00 Build 0)  -->
<svg version="1.1" xmlns="http://www.w3.org/2000/svg" xmlns:xlink="http://www.w3.org/1999/xlink" x="0px" y="0px"
	 viewBox="0 0 24 24" style="enable-background:new 0 0 24 24;" xml:space="preserve">
<style type="text/css">
	.st0{fill:#C9C9C9;}
</style>
<g id="Camada_1">
	<path class="st0" d="M20,0H4C1.8,0,0,1.8,0,4v16c0,2.2,1.8,4,4,4h16c2.2,0,4-1.8,4-4V4C24,1.8,22.2,0,20,0z M19,19H5
		c-0.55,0-1-0.45-1-1s0.45-1,1-1h14c0.55,0,1,0.45,1,1S19.55,19,19,19z M19,15H5c-0.55,0-1-0.45-1-1s0.45-1,1-1h14
		c0.55,0,1,0.45,1,1S19.55,15,19,15z M19,11H5c-0.55,0-1-0.45-1-1s0.45-1,1-1h14c0.55,0,1,0.45,1,1S19.55,11,19,11z M19,7H5
		C4.45,7,4,6.55,4,6s0.45-1,1-1h14c0.55,0,1,0.45,1,1S19.55,7,19,7z"/>
</g>
<g id="Camada_2">
</g>
</svg>
