<svg id="Camada_1" data-name="Camada 1" xmlns="http://www.w3.org/2000/svg" viewBox="0 0 24 24"><defs><style>.cls-1{fill:#c9c9c9;}</style></defs><rect class="cls-1" y="8" width="12" height="8" rx="2"/><path class="cls-1" d="M21.51,15a.72.72,0,0,0-.29-.06h0a.72.72,0,0,0-.29.06.78.78,0,0,0-.24.16.72.72,0,0,0-.22.53v-.5a.75.75,0,0,0-.46-.69.72.72,0,0,0-.29-.06.76.76,0,0,0-.75.75v-.5a.75.75,0,0,0-.75-.75h0a.75.75,0,0,0-.75.75v-3a.76.76,0,0,0-.75-.75h0a.75.75,0,0,0-.69.46.68.68,0,0,0-.06.29v5.24l-.72-.71a.74.74,0,0,0-1.06,0,.75.75,0,0,0,0,1.06l1.63,1.63h0l.53.53h0a1.48,1.48,0,0,0,1.11.51h3a1.51,1.51,0,0,0,1.5-1.5V16h0v-.3a.76.76,0,0,0-.22-.53A.78.78,0,0,0,21.51,15Z"/><path class="cls-1" d="M22,8H16a2,2,0,0,0-2,2v4a2,2,0,0,0,.31,1.06,1.84,1.84,0,0,1,.41-.05H15V11.7a1.75,1.75,0,0,1,3.5,0V13a1.68,1.68,0,0,1,1,.5,1.14,1.14,0,0,1,.26,0A1.75,1.75,0,0,1,21,14a1.14,1.14,0,0,1,.26,0A1.75,1.75,0,0,1,23,15.7v0A2,2,0,0,0,24,14V10A2,2,0,0,0,22,8Z"/></svg>