<?xml version="1.0" encoding="utf-8"?>
<!-- Generator: Adobe Illustrator 25.3.1, SVG Export Plug-In . SVG Version: 6.00 Build 0)  -->
<svg version="1.1" xmlns="http://www.w3.org/2000/svg" xmlns:xlink="http://www.w3.org/1999/xlink" x="0px" y="0px"
	 viewBox="0 0 24 24" style="enable-background:new 0 0 24 24;" xml:space="preserve">
<style type="text/css">
	.st0{fill:#C9C9C9;}
</style>
<g id="Camada_1">
</g>
<g id="Camada_3">
</g>
<g id="Camada_4">
</g>
<g id="Camada_2">
	<g>
		<path class="st0" d="M9.01,8H2c-1.1,0-2,0.9-2,2v4c0,1.1,0.9,2,2,2h7.01V8z"/>
		<path class="st0" d="M22,8h-7.01v8H22c1.1,0,2-0.9,2-2v-4C24,8.9,23.1,8,22,8z"/>
		<path class="st0" d="M15,18h-1.5c-0.28,0-0.5-0.22-0.5-0.5v-11C13,6.22,13.22,6,13.5,6H15c0.55,0,1-0.45,1-1c0-0.55-0.45-1-1-1H9
			C8.45,4,8,4.45,8,5c0,0.55,0.45,1,1,1h1.5C10.78,6,11,6.22,11,6.5v11c0,0.28-0.22,0.5-0.5,0.5H9c-0.55,0-1,0.45-1,1
			c0,0.55,0.45,1,1,1h6c0.55,0,1-0.45,1-1C16,18.45,15.55,18,15,18z"/>
	</g>
</g>
</svg>
