<?xml version="1.0" encoding="utf-8"?>
<!-- Generator: Adobe Illustrator 25.3.1, SVG Export Plug-In . SVG Version: 6.00 Build 0)  -->
<svg version="1.1" xmlns="http://www.w3.org/2000/svg" xmlns:xlink="http://www.w3.org/1999/xlink" x="0px" y="0px"
	 viewBox="0 0 24 24" style="enable-background:new 0 0 24 24;" xml:space="preserve">
<style type="text/css">
	.st0{fill:#C9C9C9;}
</style>
<g id="Camada_1">
</g>
<g id="Camada_2">
	<path class="st0" d="M20,0H4C1.8,0,0,1.8,0,4v16c0,2.2,1.8,4,4,4h16c2.2,0,4-1.8,4-4V4C24,1.8,22.2,0,20,0z M8,19
		c0,0.55-0.45,1-1,1H3c-0.55,0-1-0.45-1-1v-4c0-0.55,0.45-1,1-1h4c0.55,0,1,0.45,1,1V19z M8,9c0,0.55-0.45,1-1,1H3
		c-0.55,0-1-0.45-1-1V5c0-0.55,0.45-1,1-1h4c0.55,0,1,0.45,1,1V9z M21,20H11c-0.55,0-1-0.45-1-1s0.45-1,1-1h10c0.55,0,1,0.45,1,1
		S21.55,20,21,20z M21,16H11c-0.55,0-1-0.45-1-1s0.45-1,1-1h10c0.55,0,1,0.45,1,1S21.55,16,21,16z M21,10H11c-0.55,0-1-0.45-1-1
		s0.45-1,1-1h10c0.55,0,1,0.45,1,1S21.55,10,21,10z M21,6H11c-0.55,0-1-0.45-1-1s0.45-1,1-1h10c0.55,0,1,0.45,1,1S21.55,6,21,6z"/>
</g>
</svg>
