<svg id="Camada_1" data-name="Camada 1" xmlns="http://www.w3.org/2000/svg" viewBox="0 0 24 24"><defs><style>.cls-1{fill:#c9c9c9;}</style></defs><path class="cls-1" d="M20,4H4A4,4,0,0,0,0,8v8a4,4,0,0,0,4,4H20a4,4,0,0,0,4-4V8A4,4,0,0,0,20,4Zm-8.36,8.49-.59.33a1.35,1.35,0,0,0-.6,1.46l.18.65c.14.53-.17.84-.7.7l-.65-.18a1.35,1.35,0,0,0-1.46.6l-.33.59c-.27.48-.71.48-1,0l-.33-.59a1.35,1.35,0,0,0-1.46-.6l-.65.18c-.53.14-.84-.17-.7-.7l.18-.65A1.35,1.35,0,0,0,3,12.82l-.59-.33c-.48-.27-.48-.71,0-1L3,11.18a1.35,1.35,0,0,0,.6-1.46l-.18-.65c-.14-.53.17-.84.7-.7l.65.18A1.35,1.35,0,0,0,6.18,8l.33-.59c.27-.48.71-.48,1,0L7.82,8a1.35,1.35,0,0,0,1.46.6l.65-.18c.53-.14.84.17.7.7l-.18.65a1.35,1.35,0,0,0,.6,1.46l.59.33C12.12,11.78,12.12,12.22,11.64,12.49ZM21,15H15a1,1,0,0,1,0-2h6a1,1,0,0,1,0,2Zm0-4H15a1,1,0,0,1,0-2h6a1,1,0,0,1,0,2Z"/></svg>