<?xml version="1.0" encoding="utf-8"?>
<!-- Generator: Adobe Illustrator 25.3.1, SVG Export Plug-In . SVG Version: 6.00 Build 0)  -->
<svg version="1.1" xmlns="http://www.w3.org/2000/svg" xmlns:xlink="http://www.w3.org/1999/xlink" x="0px" y="0px"
	 viewBox="0 0 24 24" style="enable-background:new 0 0 24 24;" xml:space="preserve">
<style type="text/css">
	.st0{fill:#C9C9C9;}
</style>
<g id="Camada_1">
</g>
<g id="Camada_3">
</g>
<g id="Camada_4">
</g>
<g id="Camada_2">
	<g>
		<path class="st0" d="M10.26,12.1l-1.49,1.49v0l-2.48,2.48c-0.39,0.39-0.39,1.03,0,1.41l0.22,0.22c0.39,0.39,1.03,0.39,1.41,0
			l9.76-9.76c0.39-0.39,0.39-1.03,0-1.41l-0.22-0.22c-0.39-0.39-1.03-0.39-1.41,0l-2.46,2.46l0,0l-1.49,1.49l0,0L10.26,12.1
			L10.26,12.1z"/>
		<path class="st0" d="M10.52,16.52c-0.09,0.5-0.32,0.98-0.7,1.36l-3.37,3.37C5.97,21.73,5.33,22,4.65,22
			c-0.68,0-1.32-0.26-1.8-0.74l-0.11-0.11c-0.99-0.99-0.99-2.61,0-3.6l3.37-3.37c0.37-0.37,0.84-0.61,1.36-0.7l1.81-1.81
			c-0.45-0.14-0.9-0.23-1.37-0.23c-1.17,0-2.33,0.44-3.21,1.33l-3.37,3.37c-1.77,1.77-1.77,4.66,0,6.43l0.11,0.11
			C2.32,23.56,3.48,24,4.65,24c1.17,0,2.33-0.44,3.21-1.33l3.37-3.37c1.24-1.24,1.59-3.02,1.1-4.58L10.52,16.52z"/>
		<path class="st0" d="M22.67,1.43l-0.11-0.11C21.68,0.44,20.52,0,19.35,0c-1.17,0-2.33,0.44-3.21,1.33L12.76,4.7
			c-1.24,1.24-1.59,3.02-1.1,4.58l1.81-1.81c0.09-0.5,0.32-0.98,0.7-1.36l3.37-3.37C18.03,2.27,18.67,2,19.35,2
			c0.68,0,1.32,0.26,1.8,0.74l0.11,0.11c0.99,0.99,0.99,2.61,0,3.6l-3.37,3.37c-0.37,0.37-0.84,0.61-1.36,0.7l-1.81,1.81
			c0.45,0.14,0.9,0.23,1.37,0.23c1.17,0,2.33-0.44,3.21-1.33l3.37-3.37C24.44,6.1,24.44,3.2,22.67,1.43z"/>
	</g>
</g>
</svg>
