<svg id="Camada_1" data-name="Camada 1" xmlns="http://www.w3.org/2000/svg" viewBox="0 0 24 24"><defs><style>.cls-1{fill:#c9c9c9;}</style></defs><path class="cls-1" d="M18,6c0-.16,0-.31,0-.46h0C18,5.69,18,5.84,18,6Z"/><path class="cls-1" d="M6,5.59C6,5.73,6,5.86,6,6c0-.14,0-.27,0-.41Z"/><path class="cls-1" d="M18,6A6,6,0,0,0,6,6c0,3.31,6,12,6,12S18,9.31,18,6ZM10,6a2,2,0,1,1,2,2A2,2,0,0,1,10,6Z"/><path class="cls-1" d="M12,20c-4.42,0-8,.9-8,2s3.58,2,8,2,8-.9,8-2S16.42,20,12,20Zm0,2.5c-1.66,0-3-.22-3-.5s1.34-.5,3-.5,3,.22,3,.5S13.66,22.5,12,22.5Z"/></svg>