<?xml version="1.0" encoding="utf-8"?>
<!-- Generator: Adobe Illustrator 25.2.1, SVG Export Plug-In . SVG Version: 6.00 Build 0)  -->
<svg version="1.1" id="Camada_1" xmlns="http://www.w3.org/2000/svg" xmlns:xlink="http://www.w3.org/1999/xlink" x="0px" y="0px"
	 viewBox="0 0 24 24" style="enable-background:new 0 0 24 24;" xml:space="preserve">
<style type="text/css">
	.st0{fill:#CAC9C9;}
</style>
<g>
	<path class="st0" d="M23,0h-9.5c-0.6,0-1,0.4-1,1v1.9c0,0.3-0.3,0.6-0.7,0.5c-0.5-0.2-1-0.2-1.6,0C9.4,3.6,8.8,4.3,8.6,5.1
		C8.2,6.8,9.4,8.2,11,8.2c0.3,0,0.6-0.1,0.8-0.1c0.3-0.1,0.7,0.1,0.7,0.5v1.9c0,0.6,0.4,1,1,1h0.8c0.3,0,0.5-0.1,0.4-0.3
		c0,0,0,0,0-0.2c0-1.9,1.6-3.5,3.5-3.5s3.5,1.6,3.5,3.5c0,0.2,0,0.2,0,0.2c0,0.2,0.2,0.3,0.5,0.3H23c0.5,0,1-0.4,1-1V1
		C24,0.4,23.5,0,23,0z"/>
	<path class="st0" d="M1,11.5h1.9c0.3,0,0.6,0.3,0.5,0.7c-0.2,0.5-0.2,1,0,1.6c0.2,0.8,0.9,1.5,1.8,1.7c1.7,0.4,3.1-0.8,3.1-2.4
		c0-0.3-0.1-0.6-0.1-0.8c-0.1-0.3,0.1-0.7,0.5-0.7h1.9c0.6,0,1-0.4,1-1V9.7c0-0.3-0.1-0.5-0.3-0.4c0,0,0,0-0.2,0
		c-1.9,0-3.5-1.6-3.5-3.5S9.1,2.2,11,2.2c0.2,0,0.2,0,0.2,0c0.2,0,0.3-0.2,0.3-0.5V1c0-0.6-0.4-1-1-1H1C0.4,0,0,0.4,0,1v9.5
		C0,11.1,0.4,11.5,1,11.5z"/>
	<path class="st0" d="M15.4,17.6c-0.2-0.8-0.9-1.5-1.7-1.8c-0.6-0.2-1.1-0.1-1.6,0c-0.3,0.1-0.7-0.1-0.7-0.5v-1.9c0-0.6-0.4-1-1-1
		H9.7c-0.3,0-0.5,0.1-0.4,0.3c0,0,0,0,0,0.2c0,1.9-1.6,3.5-3.5,3.5S2.2,14.9,2.2,13c0-0.2,0-0.2,0-0.2c0-0.2-0.2-0.3-0.5-0.3H1
		c-0.6,0-1,0.4-1,1V23c0,0.5,0.4,1,1,1h9.5c0.6,0,1-0.5,1-1v-1.9c0-0.3,0.3-0.6,0.7-0.5c0.3,0.1,0.5,0.1,0.8,0.1
		C14.6,20.8,15.8,19.3,15.4,17.6z"/>
	<path class="st0" d="M23,12.5h-1.9c-0.3,0-0.6-0.3-0.5-0.7c0.2-0.5,0.2-1,0-1.6c-0.2-0.8-0.9-1.5-1.8-1.7c-1.7-0.4-3.1,0.8-3.1,2.4
		c0,0.3,0.1,0.6,0.1,0.8c0.1,0.3-0.1,0.7-0.5,0.7h-1.9c-0.6,0-1,0.4-1,1v0.8c0,0.3,0.1,0.5,0.3,0.4c0,0,0,0,0.2,0
		c1.9,0,3.5,1.6,3.5,3.5s-1.6,3.5-3.5,3.5c-0.2,0-0.2,0-0.2,0c-0.2,0-0.3,0.2-0.3,0.5V23c0,0.5,0.4,1,1,1H23c0.5,0,1-0.5,1-1v-9.5
		C24,12.9,23.5,12.5,23,12.5z"/>
</g>
</svg>
