<?xml version="1.0" encoding="utf-8"?>
<!-- Generator: Adobe Illustrator 25.3.1, SVG Export Plug-In . SVG Version: 6.00 Build 0)  -->
<svg version="1.1" xmlns="http://www.w3.org/2000/svg" xmlns:xlink="http://www.w3.org/1999/xlink" x="0px" y="0px"
	 viewBox="0 0 24 24" style="enable-background:new 0 0 24 24;" xml:space="preserve">
<style type="text/css">
	.st0{fill:#C9C9C9;}
</style>
<g id="Camada_1">
	<path class="st0" d="M12,0C5.37,0,0,5.37,0,12c0,6.63,5.37,12,12,12s12-5.37,12-12C24,5.37,18.63,0,12,0z M18.71,8.71l-8.01,8l0,0
		c-0.1,0.1-0.21,0.17-0.33,0.22c-0.36,0.15-0.79,0.07-1.08-0.22l-4-3.99c-0.39-0.39-0.39-1.03,0-1.41l0,0
		c0.39-0.39,1.03-0.39,1.41,0L10,14.59l7.3-7.3c0.39-0.39,1.03-0.39,1.41,0l0,0C19.1,7.68,19.1,8.32,18.71,8.71z"/>
</g>
<g id="Camada_2">
</g>
</svg>
