<?xml version="1.0" encoding="utf-8"?>
<!-- Generator: Adobe Illustrator 25.3.1, SVG Export Plug-In . SVG Version: 6.00 Build 0)  -->
<svg version="1.1" xmlns="http://www.w3.org/2000/svg" xmlns:xlink="http://www.w3.org/1999/xlink" x="0px" y="0px"
	 viewBox="0 0 24 24" style="enable-background:new 0 0 24 24;" xml:space="preserve">
<style type="text/css">
	.st0{fill:#C9C9C9;}
</style>
<g id="Camada_1">
	<path class="st0" d="M4,24h16c2.2,0,4-1.8,4-4V4c0-2.2-1.8-4-4-4H4C1.8,0,0,1.8,0,4v16C0,22.2,1.8,24,4,24z M20,18
		c0,0.55-0.45,1-1,1H9.34v0.67C9.34,20.4,8.74,21,8,21c-0.37,0-0.7-0.15-0.94-0.39l0,0l-2.67-2.67v0C4.15,17.7,4,17.37,4,17
		s0.15-0.7,0.39-0.94v0l2.67-2.67l0,0C7.3,13.15,7.63,13,8,13c0.74,0,1.33,0.6,1.33,1.33V15H19c0.55,0,1,0.45,1,1V18z M4.39,6.06
		l2.67-2.67l0,0C7.3,3.15,7.63,3,8,3c0.74,0,1.33,0.6,1.33,1.33V5H19c0.55,0,1,0.45,1,1v2c0,0.55-0.45,1-1,1H9.33v0.67
		C9.33,10.4,8.74,11,8,11c-0.37,0-0.7-0.15-0.94-0.39l0,0L4.39,7.94l0,0C4.15,7.7,4,7.37,4,7S4.15,6.3,4.39,6.06L4.39,6.06z"/>
</g>
<g id="Camada_2">
</g>
</svg>
