<?xml version="1.0" encoding="utf-8"?>
<!-- Generator: Adobe Illustrator 25.3.1, SVG Export Plug-In . SVG Version: 6.00 Build 0)  -->
<svg version="1.1" xmlns="http://www.w3.org/2000/svg" xmlns:xlink="http://www.w3.org/1999/xlink" x="0px" y="0px"
	 viewBox="0 0 24 24" style="enable-background:new 0 0 24 24;" xml:space="preserve">
<style type="text/css">
	.st0{fill:#C9C9C9;}
</style>
<g id="Camada_1">
</g>
<g id="Camada_3">
</g>
<g id="Camada_4">
</g>
<g id="Camada_2">
	<path class="st0" d="M20,0H4C1.8,0,0,1.8,0,4v16c0,2.2,1.8,4,4,4h16c2.2,0,4-1.8,4-4V4C24,1.8,22.2,0,20,0z M9.71,20.29
		c0.39,0.39,0.39,1.03,0,1.42l0,0c-0.39,0.39-1.03,0.39-1.42,0L7,20.42l-1.29,1.29c-0.39,0.39-1.03,0.39-1.42,0l0,0
		c-0.39-0.39-0.39-1.03,0-1.42L5.58,19l-1.29-1.29c-0.39-0.39-0.39-1.03,0-1.42l0,0c0.39-0.39,1.03-0.39,1.42,0L7,17.58l1.29-1.29
		c0.39-0.39,1.03-0.39,1.42,0l0,0c0.39,0.39,0.39,1.03,0,1.42L8.42,19L9.71,20.29z M19.71,17.71l-3.96,3.98v0l0,0c0,0,0,0,0,0
		l-0.01,0.01c-0.39,0.39-1.02,0.39-1.41,0l0,0c-0.02-0.02-0.03-0.05-0.05-0.08l-1.98-1.96c-0.39-0.38-0.39-1.01,0-1.4l0,0
		c0.39-0.38,1.02-0.38,1.41,0l1.33,1.31l3.27-3.29c0.39-0.39,1.02-0.39,1.41,0l0,0C20.1,16.68,20.1,17.32,19.71,17.71z M20,13
		c0,0.55-0.45,1-1,1H5c-0.55,0-1-0.45-1-1v-2c0-0.55,0.45-1,1-1h14c0.55,0,1,0.45,1,1V13z M20,7c0,0.55-0.45,1-1,1H5
		C4.45,8,4,7.55,4,7V5c0-0.55,0.45-1,1-1h14c0.55,0,1,0.45,1,1V7z"/>
</g>
</svg>
