<?xml version="1.0" encoding="utf-8"?>
<!-- Generator: Adobe Illustrator 25.3.1, SVG Export Plug-In . SVG Version: 6.00 Build 0)  -->
<svg version="1.1" xmlns="http://www.w3.org/2000/svg" xmlns:xlink="http://www.w3.org/1999/xlink" x="0px" y="0px"
	 viewBox="0 0 24 24" style="enable-background:new 0 0 24 24;" xml:space="preserve">
<style type="text/css">
	.st0{fill:#C9C9C9;}
</style>
<g id="Camada_1">
</g>
<g id="Camada_3">
</g>
<g id="Camada_4">
</g>
<g id="Camada_2">
	<g>
		<path class="st0" d="M15.01,16V8H14c-1.1,0-2,0.9-2,2v4c0,1.1,0.9,2,2,2H15.01z"/>
		<path class="st0" d="M22,8h-1.01v8H22c1.1,0,2-0.9,2-2v-4C24,8.9,23.1,8,22,8z"/>
		<path class="st0" d="M21,18h-1.5c-0.28,0-0.5-0.22-0.5-0.5v-11C19,6.22,19.22,6,19.5,6H21c0.55,0,1-0.45,1-1c0-0.55-0.45-1-1-1h-6
			c-0.55,0-1,0.45-1,1c0,0.55,0.45,1,1,1h1.5C16.78,6,17,6.22,17,6.5v11c0,0.28-0.22,0.5-0.5,0.5H15c-0.55,0-1,0.45-1,1
			c0,0.55,0.45,1,1,1h6c0.55,0,1-0.45,1-1C22,18.45,21.55,18,21,18z"/>
		<path class="st0" d="M9.63,11.51l-0.59-0.33c-0.48-0.27-0.75-0.93-0.6-1.46l0.18-0.65c0.15-0.53-0.17-0.84-0.7-0.7L7.28,8.55
			C6.75,8.7,6.09,8.43,5.82,7.95L5.49,7.36c-0.27-0.48-0.71-0.48-0.99,0L4.17,7.95C3.9,8.43,3.25,8.7,2.72,8.55L2.07,8.37
			c-0.53-0.15-0.84,0.17-0.7,0.7l0.18,0.65c0.15,0.53-0.12,1.19-0.6,1.46l-0.59,0.33c-0.48,0.27-0.48,0.71,0,0.99l0.59,0.33
			c0.48,0.27,0.75,0.93,0.6,1.46l-0.18,0.65c-0.15,0.53,0.17,0.84,0.7,0.7l0.65-0.18c0.53-0.15,1.19,0.12,1.46,0.6l0.33,0.59
			c0.27,0.48,0.71,0.48,0.99,0l0.33-0.59c0.27-0.48,0.93-0.75,1.46-0.6l0.65,0.18c0.53,0.15,0.84-0.17,0.7-0.7l-0.18-0.65
			c-0.15-0.53,0.12-1.19,0.6-1.46l0.59-0.33C10.11,12.22,10.11,11.78,9.63,11.51z"/>
	</g>
</g>
</svg>
