<?xml version="1.0" encoding="utf-8"?>
<!-- Generator: Adobe Illustrator 25.3.1, SVG Export Plug-In . SVG Version: 6.00 Build 0)  -->
<svg version="1.1" xmlns="http://www.w3.org/2000/svg" xmlns:xlink="http://www.w3.org/1999/xlink" x="0px" y="0px"
	 viewBox="0 0 24 24" style="enable-background:new 0 0 24 24;" xml:space="preserve">
<style type="text/css">
	.st0{fill:#C9C9C9;}
</style>
<g id="Camada_1">
	<path class="st0" d="M4,20h16c2.2,0,4-1.8,4-4V8c0-2.2-1.8-4-4-4H4C1.8,4,0,5.8,0,8v8C0,18.2,1.8,20,4,20z M4.39,11.06L4.39,11.06
		l2.67-2.67l0,0C7.3,8.15,7.63,8,8,8c0.74,0,1.33,0.6,1.33,1.33V10H19c0.55,0,1,0.45,1,1v2c0,0.55-0.45,1-1,1H9.34v0.67
		C9.34,15.4,8.74,16,8,16c-0.37,0-0.7-0.15-0.94-0.39l0,0l-2.67-2.67v0C4.15,12.7,4,12.37,4,12S4.15,11.3,4.39,11.06z"/>
</g>
<g id="Camada_2">
</g>
</svg>
