<svg id="Camada_1" data-name="Camada 1" xmlns="http://www.w3.org/2000/svg" viewBox="0 0 24 24"><defs><style>.cls-1{fill:#c9c9c9;}</style></defs><path class="cls-1" d="M21,18H19.5a.5.5,0,0,1-.5-.5V6.5a.5.5,0,0,1,.5-.5H21a1,1,0,0,0,0-2H15a1,1,0,0,0,0,2h1.5a.5.5,0,0,1,.5.5v11a.5.5,0,0,1-.5.5H15a1,1,0,0,0,0,2h6a1,1,0,0,0,0-2Z"/><path class="cls-1" d="M15,8H2a2,2,0,0,0-2,2v4a2,2,0,0,0,2,2H15Zm-3,5a1,1,0,0,1-1,1H3a1,1,0,0,1-1-1V11a1,1,0,0,1,1-1h8a1,1,0,0,1,1,1Z"/><path class="cls-1" d="M22,8H21v8h1a2,2,0,0,0,2-2V10A2,2,0,0,0,22,8Z"/></svg>