<?xml version="1.0" encoding="utf-8"?>
<!-- Generator: Adobe Illustrator 25.3.1, SVG Export Plug-In . SVG Version: 6.00 Build 0)  -->
<svg version="1.1" xmlns="http://www.w3.org/2000/svg" xmlns:xlink="http://www.w3.org/1999/xlink" x="0px" y="0px"
	 viewBox="0 0 24 24" style="enable-background:new 0 0 24 24;" xml:space="preserve">
<style type="text/css">
	.st0{fill:#C9C9C9;}
</style>
<g id="Camada_1">
</g>
<g id="Camada_3">
</g>
<g id="Camada_4">
</g>
<g id="Camada_2">
	<g>
		<path class="st0" d="M20,0H4C1.8,0,0,1.8,0,4v16c0,2.2,1.8,4,4,4h16c2.2,0,4-1.8,4-4V4C24,1.8,22.2,0,20,0z M13.5,18H15
			c0.55,0,1,0.45,1,1c0,0.55-0.45,1-1,1H9c-0.55,0-1-0.45-1-1c0-0.55,0.45-1,1-1h1.5c0.28,0,0.5-0.22,0.5-0.5v-11
			C11,6.22,10.78,6,10.5,6H9C8.45,6,8,5.55,8,5c0-0.55,0.45-1,1-1h6c0.55,0,1,0.45,1,1c0,0.55-0.45,1-1,1h-1.5
			C13.22,6,13,6.22,13,6.5v11C13,17.78,13.22,18,13.5,18z"/>
	</g>
</g>
</svg>
