<?xml version="1.0" encoding="utf-8"?>
<!-- Generator: Adobe Illustrator 25.3.1, SVG Export Plug-In . SVG Version: 6.00 Build 0)  -->
<svg version="1.1" xmlns="http://www.w3.org/2000/svg" xmlns:xlink="http://www.w3.org/1999/xlink" x="0px" y="0px"
	 viewBox="0 0 24 24" style="enable-background:new 0 0 24 24;" xml:space="preserve">
<style type="text/css">
	.st0{fill:#C9C9C9;}
</style>
<g id="Camada_1">
</g>
<g id="Camada_3">
</g>
<g id="Camada_4">
</g>
<g id="Camada_2">
	<g>
		<circle class="st0" cx="7" cy="7" r="3"/>
		<path class="st0" d="M24.22,16.25h-0.5h-2.43c-0.28,0-0.44-0.22-0.36-0.48l0.58-2.02l0.71-2.5h-0.5h-3h-0.5l-0.14,0.48
			c0,0,0,0,0,0l-0.86,3.02l-1,3.5h0.5h1.75c0.27,0,0.47,0.22,0.44,0.5l-0.69,5.5L24.22,16.25z"/>
		<path class="st0" d="M14.81,19.31c-0.45-0.6-0.59-1.36-0.38-2.09l1.73-6.04c0.32-1.12,1.4-1.93,2.56-1.93h1.54l-0.96-0.96
			c-0.39-0.39-1.03-0.39-1.41,0l-7.42,7.42l-3.4-3.4c-0.39-0.39-1.03-0.39-1.41,0L2,15.96V4c0-1.1,0.9-2,2-2h16c1.1,0,2,0.9,2,2
			v5.28c0.65,0.07,1.23,0.39,1.63,0.91c0.18,0.24,0.3,0.51,0.37,0.79V4c0-2.2-1.8-4-4-4H4C1.8,0,0,1.8,0,4v16c0,2.2,1.8,4,4,4h12.29
			c-0.01-0.16-0.02-0.31,0.01-0.49l0.41-3.26C15.94,20.25,15.25,19.9,14.81,19.31z"/>
	</g>
</g>
</svg>
