<?xml version="1.0" encoding="utf-8"?>
<!-- Generator: Adobe Illustrator 25.3.1, SVG Export Plug-In . SVG Version: 6.00 Build 0)  -->
<svg version="1.1" xmlns="http://www.w3.org/2000/svg" xmlns:xlink="http://www.w3.org/1999/xlink" x="0px" y="0px"
	 viewBox="0 0 24 24" style="enable-background:new 0 0 24 24;" xml:space="preserve">
<style type="text/css">
	.st0{fill:#C9C9C9;}
</style>
<g id="Camada_1">
</g>
<g id="Camada_3">
</g>
<g id="Camada_4">
</g>
<g id="Camada_2">
	<g>
		<path class="st0" d="M18.5,14c-0.83,0-1.5,0.67-1.5,1.5v-1c0-0.83-0.67-1.5-1.5-1.5S14,13.68,14,14.5v-1c0-0.83-0.67-1.5-1.5-1.5
			S11,12.68,11,13.5v-6C11,6.68,10.33,6,9.5,6S8,6.68,8,7.5v10.49l-1.44-1.44c-0.59-0.59-1.54-0.59-2.12,0
			c-0.59,0.59-0.59,1.54,0,2.12l3.26,3.26c0,0,0,0,0,0L8.77,23l0.01-0.01C9.33,23.6,10.12,24,11,24h6c1.65,0,3-1.35,3-3v-0.5V19
			v-3.5C20,14.68,19.33,14,18.5,14z"/>
		<path class="st0" d="M20,2H4C1.8,2,0,3.8,0,6v2c0,2.2,1.8,4,4,4h2V7.5C6,5.57,7.57,4,9.5,4C11.43,4,13,5.57,13,7.5v2.54
			c0.77,0.11,1.46,0.47,1.99,1C15.15,11.01,15.33,11,15.5,11c0.95,0,1.81,0.38,2.44,1H20c2.2,0,4-1.8,4-4V6C24,3.8,22.2,2,20,2z"/>
	</g>
</g>
</svg>
