<?xml version="1.0" encoding="utf-8"?>
<!-- Generator: Adobe Illustrator 25.3.1, SVG Export Plug-In . SVG Version: 6.00 Build 0)  -->
<svg version="1.1" xmlns="http://www.w3.org/2000/svg" xmlns:xlink="http://www.w3.org/1999/xlink" x="0px" y="0px"
	 viewBox="0 0 24 24" style="enable-background:new 0 0 24 24;" xml:space="preserve">
<style type="text/css">
	.st0{fill:#C9C9C9;}
</style>
<g id="Camada_1">
</g>
<g id="Camada_3">
</g>
<g id="Camada_4">
</g>
<g id="Camada_2">
	<path class="st0" d="M11.37,0.32c0.35-0.43,0.91-0.43,1.26,0l1.63,2.02C14.6,2.76,15.32,3,15.85,2.85l2.5-0.67
		c0.53-0.14,0.99,0.19,1.02,0.74l0.13,2.59c0.03,0.55,0.47,1.16,0.99,1.36l2.42,0.93c0.51,0.2,0.69,0.73,0.39,1.2l-1.41,2.17
		c-0.3,0.46-0.3,1.22,0,1.68l1.41,2.17c0.3,0.46,0.13,1-0.39,1.2l-2.42,0.93c-0.51,0.2-0.96,0.81-0.99,1.36l-0.13,2.59
		c-0.03,0.55-0.49,0.88-1.02,0.74l-2.5-0.67c-0.53-0.14-1.25,0.09-1.59,0.52l-1.63,2.02c-0.35,0.43-0.91,0.43-1.26,0l-1.63-2.02
		C9.4,21.24,8.68,21,8.15,21.15l-2.5,0.67c-0.53,0.14-0.99-0.19-1.02-0.74l-0.13-2.59c-0.03-0.55-0.47-1.16-0.99-1.36l-2.42-0.93
		c-0.51-0.2-0.69-0.73-0.39-1.2l1.41-2.17c0.3-0.46,0.3-1.22,0-1.68L0.7,8.99c-0.3-0.46-0.13-1,0.39-1.2l2.42-0.93
		c0.51-0.2,0.96-0.81,0.99-1.36l0.13-2.59c0.03-0.55,0.49-0.88,1.02-0.74l2.5,0.67C8.68,3,9.4,2.76,9.74,2.34L11.37,0.32z"/>
</g>
</svg>
