<?xml version="1.0" encoding="utf-8"?>
<!-- Generator: Adobe Illustrator 25.3.1, SVG Export Plug-In . SVG Version: 6.00 Build 0)  -->
<svg version="1.1" id="Camada_1" xmlns="http://www.w3.org/2000/svg" xmlns:xlink="http://www.w3.org/1999/xlink" x="0px" y="0px"
	 viewBox="0 0 24 24" style="enable-background:new 0 0 24 24;" xml:space="preserve">
<style type="text/css">
	.st0{fill:#CAC9C9;}
</style>
<g>
	<g>
		<g>
			<path class="st0" d="M22,0h-7.01C13.9,0,13,0.9,13,2V4c0,0.28-0.23,0.5-0.5,0.5h-0.28c-0.27,0-0.65-0.17-0.83-0.38
				c0,0-0.34-0.39-0.83-0.53c-0.02-0.01-0.04-0.01-0.07-0.02C9.95,3.43,9.35,3.43,8.56,4.23c-0.3,0.3-0.53,0.7-0.56,1.12
				C7.92,6.52,8.85,7.5,10,7.5c0.17,0,0.34-0.03,0.5-0.07c0.02-0.01,0.04-0.01,0.07-0.02c0.49-0.15,0.83-0.53,0.83-0.53
				c0.18-0.21,0.55-0.38,0.83-0.38h0.28C12.77,6.5,13,6.72,13,7v2.01c0,1.1,0.9,1.99,1.99,1.99l0,0c0.09,0,0.13-0.22,0.09-0.49
				c0,0-0.24-1.52,1.01-2.86C16.7,7,17.52,6.52,18.41,6.5C20.38,6.45,22,8.04,22,10c0,0.35-0.04,0.52-0.04,0.52
				C21.89,10.78,21.91,11,22,11l0,0c1.1,0,2-0.9,2-1.99V2C24,0.9,23.1,0,22,0z"/>
		</g>
		<g>
			<path class="st0" d="M2,11H4c0.28,0,0.5,0.23,0.5,0.5v0.28c0,0.27-0.17,0.65-0.38,0.83c0,0-0.39,0.34-0.53,0.83
				c-0.01,0.02-0.01,0.04-0.02,0.07c-0.14,0.55-0.14,1.15,0.66,1.94c0.3,0.3,0.7,0.53,1.12,0.56C6.52,16.08,7.5,15.15,7.5,14
				c0-0.17-0.03-0.34-0.07-0.5c-0.01-0.02-0.01-0.04-0.02-0.07c-0.15-0.49-0.53-0.83-0.53-0.83c-0.21-0.18-0.38-0.55-0.38-0.83V11.5
				C6.5,11.23,6.72,11,7,11h2.01C10.1,11,11,10.1,11,9.01l0,0c0-0.09-0.22-0.13-0.49-0.09c0,0-1.52,0.24-2.86-1.01
				C7,7.3,6.52,6.48,6.5,5.59C6.45,3.62,8.04,2,10,2c0.35,0,0.52,0.04,0.52,0.04C10.78,2.11,11,2.09,11,2l0,0c0-1.1-0.9-2-1.99-2H2
				C0.9,0,0,0.9,0,2v7.01C0,10.1,0.9,11,2,11z"/>
		</g>
		<g>
			<path class="st0" d="M13.43,20.41c0.02,0.01,0.04,0.01,0.07,0.02c0.55,0.14,1.15,0.14,1.94-0.66c0.3-0.3,0.53-0.7,0.56-1.12
				c0.08-1.17-0.84-2.15-1.99-2.15c-0.17,0-0.34,0.03-0.5,0.07c-0.02,0.01-0.04,0.01-0.07,0.02c-0.49,0.15-0.83,0.53-0.83,0.53
				c-0.18,0.21-0.55,0.38-0.83,0.38H11.5c-0.27,0-0.5-0.23-0.5-0.5v-2.01C11,13.9,10.1,13,9.01,13l0,0c-0.09,0-0.13,0.22-0.09,0.49
				c0,0,0.24,1.52-1.01,2.86C7.3,17,6.48,17.48,5.59,17.5C3.62,17.55,2,15.96,2,14c0-0.35,0.04-0.52,0.04-0.52
				C2.11,13.22,2.09,13,2,13l0,0c-1.1,0-2,0.9-2,1.99V22c0,1.1,0.9,2,2,2h7.01c1.1,0,1.99-0.9,1.99-2v-2c0-0.27,0.23-0.5,0.5-0.5
				h0.28c0.27,0,0.65,0.17,0.83,0.38C12.61,19.88,12.94,20.26,13.43,20.41z"/>
		</g>
		<g>
			<path class="st0" d="M22,13h-2c-0.27,0-0.5-0.23-0.5-0.5v-0.28c0-0.27,0.17-0.65,0.38-0.83c0,0,0.39-0.34,0.53-0.83
				c0.01-0.02,0.01-0.04,0.02-0.07c0.14-0.55,0.14-1.15-0.66-1.94c-0.3-0.3-0.7-0.53-1.12-0.56C17.48,7.92,16.5,8.85,16.5,10
				c0,0.17,0.03,0.34,0.07,0.5c0.01,0.02,0.01,0.04,0.02,0.07c0.15,0.49,0.53,0.83,0.53,0.83c0.21,0.18,0.38,0.55,0.38,0.83v0.28
				c0,0.27-0.23,0.5-0.5,0.5h-2.01C13.9,13,13,13.9,13,14.99l0,0c0,0.09,0.22,0.13,0.49,0.09c0,0,1.52-0.24,2.86,1.01
				c0.65,0.61,1.12,1.42,1.14,2.31C17.55,20.38,15.96,22,14,22c-0.35,0-0.52-0.04-0.52-0.04C13.22,21.89,13,21.91,13,22l0,0
				c0,1.1,0.9,2,1.99,2H22c1.1,0,2-0.9,2-2v-7.01C24,13.9,23.1,13,22,13z"/>
		</g>
	</g>
</g>
</svg>
