<svg id="Camada_1" data-name="Camada 1" xmlns="http://www.w3.org/2000/svg" viewBox="0 0 24 24"><defs><style>.cls-1{fill:#c9c9c9;}</style></defs><rect class="cls-1" x="1" y="1" width="4" height="4" rx="1"/><rect class="cls-1" x="1" y="19" width="4" height="4" rx="1"/><rect class="cls-1" x="1" y="13" width="4" height="4" rx="1"/><rect class="cls-1" x="1" y="7" width="4" height="4" rx="1"/><rect class="cls-1" x="7" y="1" width="4" height="4" rx="1"/><rect class="cls-1" x="7" y="19" width="4" height="4" rx="1"/><rect class="cls-1" x="13" y="1" width="4" height="4" rx="1"/><rect class="cls-1" x="13" y="19" width="4" height="4" rx="1"/><rect class="cls-1" x="19" y="1" width="4" height="4" rx="1"/><rect class="cls-1" x="19" y="19" width="4" height="4" rx="1"/><rect class="cls-1" x="19" y="13" width="4" height="4" rx="1"/><rect class="cls-1" x="19" y="7" width="4" height="4" rx="1"/></svg>