<?xml version="1.0" encoding="utf-8"?>
<!-- Generator: Adobe Illustrator 25.3.1, SVG Export Plug-In . SVG Version: 6.00 Build 0)  -->
<svg version="1.1" xmlns="http://www.w3.org/2000/svg" xmlns:xlink="http://www.w3.org/1999/xlink" x="0px" y="0px"
	 viewBox="0 0 24 24" style="enable-background:new 0 0 24 24;" xml:space="preserve">
<style type="text/css">
	.st0{fill:#C9C9C9;}
</style>
<g id="Camada_1">
	<g>
		<path class="st0" d="M22,3H2C0.9,3,0,3.9,0,5v4c0,1.1,0.9,2,2,2h20c1.1,0,2-0.9,2-2V5C24,3.9,23.1,3,22,3z M12,7.04
			C12,7.57,11.57,8,11.04,8H4.96C4.43,8,4,7.57,4,7.04V6.96C4,6.43,4.43,6,4.96,6h6.08C11.57,6,12,6.43,12,6.96V7.04z M19.79,6.2
			l-2.6,2.6c0,0,0,0,0,0c-0.23,0.23-0.58,0.25-0.85,0.09c-0.05-0.03-0.1-0.05-0.14-0.09c0,0,0,0,0,0l-1.6-1.6
			c-0.27-0.27-0.27-0.72,0-0.99c0.27-0.27,0.72-0.27,0.99,0l1.1,1.1l2.1-2.1c0.27-0.27,0.72-0.27,0.99,0S20.07,5.92,19.79,6.2z"/>
		<path class="st0" d="M22,13H2c-1.1,0-2,0.9-2,2v4c0,1.1,0.9,2,2,2h20c1.1,0,2-0.9,2-2v-4C24,13.9,23.1,13,22,13z M12,17.04
			c0,0.53-0.43,0.96-0.96,0.96H4.96C4.43,18,4,17.57,4,17.04v-0.08C4,16.43,4.43,16,4.96,16h6.08c0.53,0,0.96,0.43,0.96,0.96V17.04z
			"/>
	</g>
</g>
<g id="Camada_2">
</g>
</svg>
