<?xml version="1.0" encoding="utf-8"?>
<!-- Generator: Adobe Illustrator 25.3.1, SVG Export Plug-In . SVG Version: 6.00 Build 0)  -->
<svg version="1.1" xmlns="http://www.w3.org/2000/svg" xmlns:xlink="http://www.w3.org/1999/xlink" x="0px" y="0px"
	 viewBox="0 0 24 24" style="enable-background:new 0 0 24 24;" xml:space="preserve">
<style type="text/css">
	.st0{fill:#C9C9C9;}
</style>
<g id="Camada_1">
</g>
<g id="Camada_3">
</g>
<g id="Camada_4">
</g>
<g id="Camada_2">
	<g>
		<path class="st0" d="M23.33,10.43C20.72,11.38,16.63,12,12,12c-4.63,0-8.72-0.62-11.33-1.57C0.34,10.31,0,10.56,0,10.9v2.93
			c0,0.21,0.12,0.39,0.31,0.47C2.9,15.33,7.17,16,12,16c4.83,0,9.1-0.67,11.69-1.69c0.19-0.08,0.31-0.26,0.31-0.47V10.9
			C24,10.56,23.66,10.31,23.33,10.43z"/>
		<path class="st0" d="M23.33,16.43C20.72,17.38,16.63,18,12,18c-4.63,0-8.72-0.62-11.33-1.57C0.34,16.31,0,16.56,0,16.9v2.93
			c0,0.21,0.12,0.39,0.31,0.47C2.9,21.33,7.17,22,12,22c4.83,0,9.1-0.67,11.69-1.69c0.19-0.08,0.31-0.26,0.31-0.47V16.9
			C24,16.56,23.66,16.31,23.33,16.43z"/>
		<path class="st0" d="M23.69,3.69C21.1,2.67,16.83,2,12,2S2.9,2.67,0.31,3.69C0.12,3.77,0,3.96,0,4.16v3.68
			c0,0.2,0.12,0.39,0.31,0.47C2.9,9.33,7.17,10,12,10s9.1-0.67,11.69-1.69C23.88,8.23,24,8.04,24,7.84V4.16
			C24,3.96,23.88,3.77,23.69,3.69z"/>
	</g>
</g>
</svg>
