<?xml version="1.0" encoding="utf-8"?>
<!-- Generator: Adobe Illustrator 25.3.1, SVG Export Plug-In . SVG Version: 6.00 Build 0)  -->
<svg version="1.1" xmlns="http://www.w3.org/2000/svg" xmlns:xlink="http://www.w3.org/1999/xlink" x="0px" y="0px"
	 viewBox="0 0 24 24" style="enable-background:new 0 0 24 24;" xml:space="preserve">
<style type="text/css">
	.st0{fill:#C9C9C9;}
</style>
<g id="Camada_1">
</g>
<g id="Camada_3">
</g>
<g id="Camada_4">
</g>
<g id="Camada_2">
	<g>
		<path class="st0" d="M16,6H8C7.45,6,7,6.45,7,7v2c0,0.55,0.45,1,1,1h8c0.55,0,1-0.45,1-1V7C17,6.45,16.55,6,16,6z"/>
		<path class="st0" d="M20,0H4C1.8,0,0,1.8,0,4v16c0,2.2,1.8,4,4,4h16c2.2,0,4-1.8,4-4V4C24,1.8,22.2,0,20,0z M20.45,8.89l1.11,2.21
			C21.8,11.6,21.55,12,21,12H3c-0.55,0-0.8-0.4-0.55-0.89l1.11-2.21c0.25-0.49,0.25-1.3,0-1.79L2.45,4.89C2.2,4.4,2.45,4,3,4h18
			c0.55,0,0.8,0.4,0.55,0.89l-1.11,2.21C20.2,7.6,20.2,8.4,20.45,8.89z"/>
	</g>
</g>
</svg>
