<svg id="Camada_1" data-name="Camada 1" xmlns="http://www.w3.org/2000/svg" viewBox="0 0 24 24"><defs><style>.cls-1{fill:#c9c9c9;}</style></defs><path class="cls-1" d="M20,0H4A4,4,0,0,0,0,4V20a4,4,0,0,0,4,4H20a4,4,0,0,0,4-4V4A4,4,0,0,0,20,0ZM9.64,17.49l-.16.1A1.35,1.35,0,0,0,8.87,19l.05.18c.15.54-.16.85-.69.7L8,19.87a1.35,1.35,0,0,0-1.45.6l-.1.17c-.27.48-.71.48-1,0l-.09-.17A1.36,1.36,0,0,0,4,19.87l-.18.05c-.53.15-.85-.16-.7-.7l0-.18a1.33,1.33,0,0,0-.6-1.45l-.17-.1c-.48-.27-.48-.71,0-1l.17-.1A1.33,1.33,0,0,0,3.13,15l0-.19c-.15-.53.17-.84.7-.69l.18.05a1.36,1.36,0,0,0,1.46-.6l.09-.17c.27-.48.71-.48,1,0l.1.17a1.35,1.35,0,0,0,1.45.6l.19-.05c.53-.15.84.16.69.69L8.87,15a1.35,1.35,0,0,0,.61,1.45l.16.1C10.12,16.78,10.12,17.22,9.64,17.49Zm0-10-.16.1A1.35,1.35,0,0,0,8.87,9l.05.19c.15.53-.16.84-.69.69L8,9.87a1.35,1.35,0,0,0-1.45.61l-.1.16c-.27.48-.71.48-1,0l-.09-.16A1.37,1.37,0,0,0,4,9.87l-.18.05c-.53.15-.85-.16-.7-.69l0-.19a1.33,1.33,0,0,0-.6-1.45l-.17-.1c-.48-.27-.48-.71,0-1l.17-.09A1.35,1.35,0,0,0,3.13,5l0-.18c-.15-.53.17-.85.7-.7l.18,0a1.35,1.35,0,0,0,1.46-.6l.09-.17c.27-.48.71-.48,1,0l.1.17A1.33,1.33,0,0,0,8,4.13l.19,0c.53-.15.84.17.69.7L8.87,5a1.37,1.37,0,0,0,.61,1.46l.16.09C10.12,6.78,10.12,7.22,9.64,7.49ZM21,20H13a1,1,0,0,1,0-2h8a1,1,0,0,1,0,2Zm0-4H13a1,1,0,0,1,0-2h8a1,1,0,0,1,0,2Zm0-6H13a1,1,0,0,1,0-2h8a1,1,0,0,1,0,2Zm0-4H13a1,1,0,0,1,0-2h8a1,1,0,0,1,0,2Z"/></svg>