<?xml version="1.0" encoding="utf-8"?>
<!-- Generator: Adobe Illustrator 25.3.1, SVG Export Plug-In . SVG Version: 6.00 Build 0)  -->
<svg version="1.1" xmlns="http://www.w3.org/2000/svg" xmlns:xlink="http://www.w3.org/1999/xlink" x="0px" y="0px"
	 viewBox="0 0 24 24" style="enable-background:new 0 0 24 24;" xml:space="preserve">
<style type="text/css">
	.st0{fill:#C9C9C9;}
</style>
<g id="Camada_1">
</g>
<g id="Camada_3">
</g>
<g id="Camada_4">
</g>
<g id="Camada_2">
	<g>
		<path class="st0" d="M12,3.99H16c1.1,0,2-0.89,2-2c0-1.1-0.89-2-2-2H12c-1.1,0-2,0.89-2,2C10,3.1,10.89,3.99,12,3.99z"/>
		<path class="st0" d="M22,6H10c-1.1,0-2-0.89-2-2V2c0-1.1-0.89-2-2-2H2c-1.1,0-2,0.89-2,2v4v2.58V22c0,1.1,0.89,2,2,2H22
			c1.1,0,2-0.89,2-2V8C24,6.89,23.11,6,22,6z M20,18c0,1.1-0.9,2-2,2H6c-1.1,0-2-0.9-2-2v-6c0-1.1,0.9-2,2-2h12c1.1,0,2,0.9,2,2V18z
			"/>
	</g>
</g>
</svg>
