<svg id="Camada_1" data-name="Camada 1" xmlns="http://www.w3.org/2000/svg" viewBox="0 0 24 24"><defs><style>.cls-1{fill:#c9c9c9;}</style></defs><path class="cls-1" d="M20,0H4A4,4,0,0,0,0,4V20a4,4,0,0,0,4,4H20a4,4,0,0,0,4-4V4A4,4,0,0,0,20,0ZM4,6A1,1,0,0,1,5,5h9.66V4.33A1.34,1.34,0,0,1,16,3a1.32,1.32,0,0,1,.94.39h0l2.67,2.67h0a1.33,1.33,0,0,1,0,1.88h0l-2.67,2.67h0A1.32,1.32,0,0,1,16,11a1.34,1.34,0,0,1-1.34-1.33V9H5A1,1,0,0,1,4,8ZM19.61,17.94l-2.67,2.67h0a1.33,1.33,0,0,1-2.27-.94V19H5a1,1,0,0,1-1-1V16a1,1,0,0,1,1-1h9.67v-.67a1.33,1.33,0,0,1,2.27-.94h0l2.67,2.67h0a1.33,1.33,0,0,1,0,1.88Z"/></svg>