<?xml version="1.0" encoding="utf-8"?>
<!-- Generator: Adobe Illustrator 25.3.1, SVG Export Plug-In . SVG Version: 6.00 Build 0)  -->
<svg version="1.1" xmlns="http://www.w3.org/2000/svg" xmlns:xlink="http://www.w3.org/1999/xlink" x="0px" y="0px"
	 viewBox="0 0 24 24" style="enable-background:new 0 0 24 24;" xml:space="preserve">
<style type="text/css">
	.st0{fill:#C9C9C9;}
</style>
<g id="Camada_1">
</g>
<g id="Camada_3">
</g>
<g id="Camada_4">
</g>
<g id="Camada_2">
	<g>
		<path class="st0" d="M5,20c-0.55,0-1-0.45-1-1c0-0.55,0.45-1,1-1h9.35c-0.01-0.26,0-0.52,0.08-0.78L14.78,16H5c-0.55,0-1-0.45-1-1
			c0-0.55,0.45-1,1-1h10.35l0.81-2.82c0.13-0.46,0.39-0.86,0.73-1.18H4c-2.2,0-4,1.8-4,4v6c0,2.2,1.8,4,4,4h12.29
			c-0.01-0.16-0.02-0.31,0.01-0.49l0.41-3.26c-0.38,0-0.74-0.09-1.07-0.25H5z"/>
		<path class="st0" d="M4,8h16c2.2,0,4-1.8,4-4c0-2.2-1.8-4-4-4H4C1.8,0,0,1.8,0,4C0,6.2,1.8,8,4,8z M14.69,2.34
			c0.18-0.18,0.42-0.27,0.66-0.31V2h3.48c0.3,0,0.6,0.11,0.83,0.34c0.46,0.46,0.46,1.2,0,1.66L18,5.66c-0.46,0.46-1.2,0.46-1.66,0
			L14.69,4C14.23,3.54,14.23,2.8,14.69,2.34z"/>
		<path class="st0" d="M23.72,16.25h-2.43c-0.27,0-0.44-0.22-0.36-0.48l1.15-4.04c0.08-0.26-0.09-0.48-0.36-0.48h-3
			c-0.28,0-0.56,0.22-0.64,0.48l-1.73,6.04c-0.08,0.26,0.09,0.48,0.36,0.48h1.75c0.27,0,0.47,0.22,0.44,0.5l-0.63,5.01
			c-0.03,0.27,0.07,0.32,0.24,0.1l5.4-7.2C24.08,16.43,23.99,16.25,23.72,16.25z"/>
	</g>
</g>
</svg>
