<?xml version="1.0" encoding="utf-8"?>
<!-- Generator: Adobe Illustrator 25.3.1, SVG Export Plug-In . SVG Version: 6.00 Build 0)  -->
<svg version="1.1" xmlns="http://www.w3.org/2000/svg" xmlns:xlink="http://www.w3.org/1999/xlink" x="0px" y="0px"
	 viewBox="0 0 24 24" style="enable-background:new 0 0 24 24;" xml:space="preserve">
<style type="text/css">
	.st0{fill:#C9C9C9;}
</style>
<g id="Camada_1">
</g>
<g id="Camada_3">
</g>
<g id="Camada_4">
</g>
<g id="Camada_2">
	<g>
		<path class="st0" d="M11,8h2c0.55,0,1-0.45,1-1c0-0.55-0.45-1-1-1h-1V5c0-0.55-0.45-1-1-1c-0.55,0-1,0.45-1,1v2
			C10,7.55,10.45,8,11,8z"/>
		<circle class="st0" cx="1" cy="11" r="1"/>
		<path class="st0" d="M21,20h-5v-3c0-0.55-0.45-1-1-1c-0.55,0-1,0.45-1,1v5h-3c-0.55,0-1,0.45-1,1c0,0.55,0.45,1,1,1h6
			c0.55,0,1-0.45,1-1c0-0.55-0.45-1-1-1h4c0.55,0,1-0.45,1-1C22,20.45,21.55,20,21,20z"/>
		<circle class="st0" cx="11" cy="19" r="1"/>
		<path class="st0" d="M23,10c-0.55,0-1,0.45-1,1v1h-1c-0.55,0-1,0.45-1,1c0,0.55,0.45,1,1,1h1v1c0,0.55,0.45,1,1,1
			c0.55,0,1-0.45,1-1v-4C24,10.45,23.55,10,23,10z"/>
		<path class="st0" d="M10,12h1c0.55,0,1-0.45,1-1c0-0.55-0.45-1-1-1H9c-0.55,0-1,0.45-1,1v4c0,0.55,0.45,1,1,1c0.55,0,1-0.45,1-1
			V12z"/>
		<path class="st0" d="M12,13c0,0.55,0.45,1,1,1h4c0.55,0,1-0.45,1-1c0-0.55-0.45-1-1-1h-4C12.45,12,12,12.45,12,13z"/>
		<circle class="st0" cx="15" cy="9" r="1"/>
		<path class="st0" d="M4,11v1H3c-0.55,0-1,0.45-1,1c0,0.55,0.45,1,1,1h2c0.55,0,1-0.45,1-1v-2c0-0.55-0.45-1-1-1
			C4.45,10,4,10.45,4,11z"/>
		<path class="st0" d="M1,8h6c0.55,0,1-0.45,1-1V1c0-0.55-0.45-1-1-1H1C0.45,0,0,0.45,0,1v6C0,7.55,0.45,8,1,8z M2,3
			c0-0.55,0.45-1,1-1h2c0.55,0,1,0.45,1,1v2c0,0.55-0.45,1-1,1H3C2.45,6,2,5.55,2,5V3z"/>
		<path class="st0" d="M23,0h-6c-0.55,0-1,0.45-1,1v6c0,0.55,0.45,1,1,1h6c0.55,0,1-0.45,1-1V1C24,0.45,23.55,0,23,0z M22,5
			c0,0.55-0.45,1-1,1h-2c-0.55,0-1-0.45-1-1V3c0-0.55,0.45-1,1-1h2c0.55,0,1,0.45,1,1V5z"/>
		<path class="st0" d="M7,16H1c-0.55,0-1,0.45-1,1v6c0,0.55,0.45,1,1,1h6c0.55,0,1-0.45,1-1v-6C8,16.45,7.55,16,7,16z M6,21
			c0,0.55-0.45,1-1,1H3c-0.55,0-1-0.45-1-1v-2c0-0.55,0.45-1,1-1h2c0.55,0,1,0.45,1,1V21z"/>
	</g>
</g>
</svg>
