<?xml version="1.0" encoding="utf-8"?>
<!-- Generator: Adobe Illustrator 25.3.1, SVG Export Plug-In . SVG Version: 6.00 Build 0)  -->
<svg version="1.1" xmlns="http://www.w3.org/2000/svg" xmlns:xlink="http://www.w3.org/1999/xlink" x="0px" y="0px"
	 viewBox="0 0 24 24" style="enable-background:new 0 0 24 24;" xml:space="preserve">
<style type="text/css">
	.st0{fill:#C9C9C9;}
</style>
<g id="Camada_1">
</g>
<g id="Camada_3">
</g>
<g id="Camada_4">
</g>
<g id="Camada_2">
	<path class="st0" d="M23,22h-3v-7c0-0.55-0.45-1-1-1h-2c-0.55,0-1,0.45-1,1v7h-2V3c0-0.55-0.45-1-1-1h-2c-0.55,0-1,0.45-1,1v19H8V9
		c0-0.55-0.45-1-1-1H5C4.45,8,4,8.45,4,9v13H2V1c0-0.55-0.45-1-1-1S0,0.45,0,1v22c0,0.55,0.45,1,1,1h4h2h4h2h4h2h4
		c0.55,0,1-0.45,1-1C24,22.45,23.55,22,23,22z"/>
</g>
</svg>
