<svg id="Camada_1" data-name="Camada 1" xmlns="http://www.w3.org/2000/svg" viewBox="0 0 24 24"><defs><style>.cls-1{fill:#c9c9c9;}</style></defs><path class="cls-1" d="M20,10H4a4,4,0,0,0-4,4v6a4,4,0,0,0,4,4H20a4,4,0,0,0,4-4V14A4,4,0,0,0,20,10ZM19,20H5a1,1,0,0,1,0-2H19a1,1,0,0,1,0,2Zm0-4H5a1,1,0,0,1,0-2H19a1,1,0,0,1,0,2Z"/><path class="cls-1" d="M4,8H20a4,4,0,0,0,0-8H4A4,4,0,0,0,4,8ZM14.69,2.34A1.16,1.16,0,0,1,15.34,2V2h3.49a1.16,1.16,0,0,1,.83.34,1.19,1.19,0,0,1,0,1.66L18,5.66a1.19,1.19,0,0,1-1.66,0L14.69,4A1.17,1.17,0,0,1,14.69,2.34Z"/></svg>