<svg id="Camada_1" data-name="Camada 1" xmlns="http://www.w3.org/2000/svg" viewBox="0 0 24 24"><defs><style>.cls-1{fill:#c9c9c9;}</style></defs><path class="cls-1" d="M20,10H4a4,4,0,0,0-4,4v6a4,4,0,0,0,4,4H20a4,4,0,0,0,4-4V14A4,4,0,0,0,20,10ZM8,19.3a.71.71,0,0,1-.7.7H2.7a.7.7,0,0,1-.7-.7v-.5a2.81,2.81,0,0,1,1.7-2.57,1.91,1.91,0,0,1-.58-1.35,1.88,1.88,0,1,1,3.17,1.35A2.8,2.8,0,0,1,8,18.8ZM21,20H11a1,1,0,0,1,0-2H21a1,1,0,0,1,0,2Zm0-4H11a1,1,0,0,1,0-2H21a1,1,0,0,1,0,2Z"/><path class="cls-1" d="M4,8H20a4,4,0,0,0,0-8H4A4,4,0,0,0,4,8Zm7-5H21a1,1,0,0,1,0,2H11a1,1,0,0,1,0-2ZM5,3A1,1,0,1,1,4,4,1,1,0,0,1,5,3Z"/></svg>