<?xml version="1.0" encoding="utf-8"?>
<!-- Generator: Adobe Illustrator 25.3.1, SVG Export Plug-In . SVG Version: 6.00 Build 0)  -->
<svg version="1.1" xmlns="http://www.w3.org/2000/svg" xmlns:xlink="http://www.w3.org/1999/xlink" x="0px" y="0px"
	 viewBox="0 0 24 24" style="enable-background:new 0 0 24 24;" xml:space="preserve">
<style type="text/css">
	.st0{fill:#C9C9C9;}
</style>
<g id="Camada_1">
</g>
<g id="Camada_3">
</g>
<g id="Camada_4">
</g>
<g id="Camada_2">
	<g>
		<circle class="st0" cx="8" cy="21" r="1"/>
		<circle class="st0" cx="12" cy="21" r="1"/>
		<circle class="st0" cx="16" cy="21" r="1"/>
		<path class="st0" d="M20,2H4C1.79,2,0,3.79,0,6v8c0,2.21,1.79,4,4,4h16c2.21,0,4-1.79,4-4V6C24,3.79,22.21,2,20,2z M6,11.83H5.97
			c-0.04,0.24-0.13,0.47-0.31,0.66c-0.46,0.46-1.2,0.46-1.66,0l-1.66-1.66c-0.46-0.46-0.46-1.2,0-1.66L4,7.51
			c0.46-0.46,1.2-0.46,1.66,0C5.89,7.74,6,8.04,6,8.34V11.83z M21.66,10.83L20,12.49c-0.46,0.46-1.2,0.46-1.66,0
			c-0.18-0.18-0.27-0.42-0.31-0.66H18V8.34c0-0.3,0.11-0.6,0.34-0.83c0.46-0.46,1.2-0.46,1.66,0l1.66,1.66
			C22.11,9.63,22.11,10.37,21.66,10.83z"/>
	</g>
</g>
</svg>
