<?xml version="1.0" encoding="utf-8"?>
<!-- Generator: Adobe Illustrator 25.3.1, SVG Export Plug-In . SVG Version: 6.00 Build 0)  -->
<svg version="1.1" xmlns="http://www.w3.org/2000/svg" xmlns:xlink="http://www.w3.org/1999/xlink" x="0px" y="0px"
	 viewBox="0 0 24 24" style="enable-background:new 0 0 24 24;" xml:space="preserve">
<style type="text/css">
	.st0{fill:#C9C9C9;}
</style>
<g id="Camada_1">
</g>
<g id="Camada_3">
</g>
<g id="Camada_4">
</g>
<g id="Camada_2">
	<g>
		<path class="st0" d="M3.01,16V8H2c-1.1,0-2,0.9-2,2v4c0,1.1,0.9,2,2,2H3.01z"/>
		<path class="st0" d="M10,8H8.99v8H10c1.1,0,2-0.9,2-2v-4C12,8.9,11.1,8,10,8z"/>
		<path class="st0" d="M9,18H7.5C7.22,18,7,17.78,7,17.5v-11C7,6.22,7.22,6,7.5,6H9c0.55,0,1-0.45,1-1c0-0.55-0.45-1-1-1H3
			C2.45,4,2,4.45,2,5c0,0.55,0.45,1,1,1h1.5C4.78,6,5,6.22,5,6.5v11C5,17.78,4.78,18,4.5,18H3c-0.55,0-1,0.45-1,1c0,0.55,0.45,1,1,1
			h6c0.55,0,1-0.45,1-1C10,18.45,9.55,18,9,18z"/>
		<path class="st0" d="M21.75,15.17c-0.14-0.14-0.32-0.22-0.53-0.22c-0.41,0-0.75,0.34-0.75,0.75v-0.5c0-0.21-0.08-0.39-0.22-0.53
			s-0.32-0.22-0.53-0.22c-0.31,0-0.58,0.19-0.69,0.46c-0.04,0.09-0.06,0.19-0.06,0.29v-0.5v0c0-0.21-0.08-0.39-0.22-0.53
			s-0.32-0.22-0.53-0.22c-0.1,0-0.2,0.02-0.29,0.06c-0.27,0.11-0.46,0.38-0.46,0.69v-3c0-0.21-0.08-0.39-0.22-0.53
			s-0.32-0.22-0.53-0.22c-0.31,0-0.58,0.19-0.69,0.46c-0.04,0.09-0.06,0.19-0.06,0.29V16v0.95l-0.72-0.72
			c-0.29-0.29-0.77-0.29-1.06,0c-0.29,0.29-0.29,0.77,0,1.06l1.63,1.63c0,0,0,0,0,0l0.53,0.53l0,0c0.28,0.31,0.67,0.5,1.11,0.5h3
			c0.83,0,1.5-0.68,1.5-1.5V18.2v-0.75V16v-0.3v0c0-0.17-0.07-0.33-0.17-0.45C21.78,15.22,21.77,15.19,21.75,15.17z"/>
		<path class="st0" d="M22,8h-6c-1.1,0-2,0.9-2,2v4c0,0.39,0.12,0.75,0.31,1.06c0.13-0.03,0.27-0.05,0.41-0.05
			c0.08,0,0.17,0.01,0.25,0.02V11.7c0-0.97,0.79-1.75,1.75-1.75s1.75,0.79,1.75,1.75v1.27c0.39,0.06,0.73,0.24,0.99,0.5
			c0.08-0.01,0.17-0.02,0.26-0.02c0.49,0,0.93,0.2,1.24,0.52c0.08-0.01,0.17-0.02,0.26-0.02c0.97,0,1.75,0.79,1.75,1.75v0.04
			C23.58,15.39,24,14.75,24,14v-4C24,8.9,23.1,8,22,8z"/>
	</g>
</g>
</svg>
