<?xml version="1.0" encoding="utf-8"?>
<!-- Generator: Adobe Illustrator 25.3.1, SVG Export Plug-In . SVG Version: 6.00 Build 0)  -->
<svg version="1.1" xmlns="http://www.w3.org/2000/svg" xmlns:xlink="http://www.w3.org/1999/xlink" x="0px" y="0px"
	 viewBox="0 0 24 24" style="enable-background:new 0 0 24 24;" xml:space="preserve">
<style type="text/css">
	.st0{fill:#C9C9C9;}
</style>
<g id="Camada_1">
</g>
<g id="Camada_3">
</g>
<g id="Camada_4">
</g>
<g id="Camada_2">
	<path class="st0" d="M20,0H4C1.8,0,0,1.8,0,4v16c0,2.2,1.8,4,4,4h16c2.2,0,4-1.8,4-4V4C24,1.8,22.2,0,20,0z M4,2h16
		c1.1,0,2,0.9,2,2v7l-2.71-2.71c-0.39-0.39-1.03-0.39-1.41,0l-7.42,7.42l-3.4-3.4c-0.39-0.39-1.03-0.39-1.41,0L2,15.96V4
		C2,2.9,2.9,2,4,2z"/>
	<circle class="st0" cx="7" cy="7" r="3"/>
</g>
</svg>
