<?xml version="1.0" encoding="utf-8"?>
<!-- Generator: Adobe Illustrator 25.3.1, SVG Export Plug-In . SVG Version: 6.00 Build 0)  -->
<svg version="1.1" xmlns="http://www.w3.org/2000/svg" xmlns:xlink="http://www.w3.org/1999/xlink" x="0px" y="0px"
	 viewBox="0 0 24 24" style="enable-background:new 0 0 24 24;" xml:space="preserve">
<style type="text/css">
	.st0{fill:#C9C9C9;}
</style>
<g id="Camada_1">
</g>
<g id="Camada_3">
</g>
<g id="Camada_4">
</g>
<g id="Camada_2">
	<path class="st0" d="M12.87,1.08l2.95,5.99c0.14,0.29,0.42,0.49,0.73,0.53l6.61,0.96c0.8,0.12,1.12,1.1,0.54,1.66l-4.78,4.66
		c-0.23,0.22-0.33,0.55-0.28,0.86l1.13,6.58c0.14,0.8-0.7,1.4-1.41,1.03l-5.91-3.11c-0.28-0.15-0.62-0.15-0.91,0l-5.91,3.11
		c-0.71,0.38-1.55-0.23-1.41-1.03l1.13-6.58c0.05-0.32-0.05-0.64-0.28-0.86L0.3,10.22c-0.58-0.56-0.26-1.54,0.54-1.66L7.44,7.6
		c0.32-0.05,0.59-0.25,0.73-0.53l2.95-5.99C11.48,0.36,12.52,0.36,12.87,1.08z"/>
</g>
</svg>
