<svg id="Camada_1" xmlns="http://www.w3.org/2000/svg" viewBox="0 0 80 80"><style>.st0{fill:#323232}.st1{fill:#fbfbfb}</style><path class="st0" d="M9.3 79.5c-4.7-1.5-8-4.3-9.3-9.1V9.7C2.9 2.6 5.8.5 13.3.5h52.8C74.4.5 77.6 2.9 80 10.8v58.6c-1.2 5.7-4.6 9.1-10.4 10.2-20.1 0-40.2-.1-60.3-.1z"/><path class="st1" d="M39.6 67.4c-4.8 0-9.5.1-14.3 0-5.6-.1-9.1-3.4-9-8.7 0-8 3.9-14.5 8.8-20.4 2-2.4 4.9-2.1 7.5-.6 4.7 2.6 9.4 2.5 14.1.1 4.3-2.2 7.4-.9 9.9 3 3.3 5 6.1 10.1 6.8 16.1.8 6.7-2.7 10.6-9.5 10.7-4.8-.2-9.5-.2-14.3-.2z"/><path class="st1" d="M50.4 24.6c0 6.8-4.5 11.8-10.6 11.7-5.8-.1-10.2-5-10.3-11.6-.1-6.6 4.6-12 10.4-12.1 5.8.1 10.5 5.4 10.5 12z"/></svg>