<?xml version="1.0" encoding="utf-8"?>
<!-- Generator: Adobe Illustrator 25.2.1, SVG Export Plug-In . SVG Version: 6.00 Build 0)  -->
<svg version="1.1" id="Camada_1" xmlns="http://www.w3.org/2000/svg" xmlns:xlink="http://www.w3.org/1999/xlink" x="0px" y="0px"
	 viewBox="0 0 80 80" style="enable-background:new 0 0 80 80;" xml:space="preserve">
<style type="text/css">
	.st0{fill:#323232;}
	.st1{fill:#FBFBFB;}
</style>
<g>
	<path class="st0" d="M9.3,79.5c-4.7-1.5-8-4.3-9.3-9.1C0,50.2,0,29.9,0,9.7c2.9-7.1,5.8-9.2,13.3-9.2c17.6,0,35.2,0,52.8,0
		c8.3,0,11.5,2.4,13.9,10.3c0,19.5,0,39,0,58.6c-1.2,5.7-4.6,9.1-10.4,10.2C49.5,79.6,29.4,79.5,9.3,79.5z"/>
	<path class="st1" d="M39.6,67.4c-4.8,0-9.5,0.1-14.3,0c-5.6-0.1-9.1-3.4-9-8.7c0-8,3.9-14.5,8.8-20.4c2-2.4,4.9-2.1,7.5-0.6
		c4.7,2.6,9.4,2.5,14.1,0.1c4.3-2.2,7.4-0.9,9.9,3c3.3,5,6.1,10.1,6.8,16.1c0.8,6.7-2.7,10.6-9.5,10.7
		C49.1,67.4,44.4,67.4,39.6,67.4z"/>
	<path class="st1" d="M50.4,24.6c0,6.8-4.5,11.8-10.6,11.7c-5.8-0.1-10.2-5-10.3-11.6c-0.1-6.6,4.6-12,10.4-12.1
		C45.7,12.7,50.4,18,50.4,24.6z"/>
</g>
</svg>
